<?xml version="1.0" encoding="utf-8"?>
<!-- Generator: Adobe Illustrator 25.2.3, SVG Export Plug-In . SVG Version: 6.00 Build 0)  -->
<svg version="1.1" id="Layer_1" xmlns="http://www.w3.org/2000/svg" xmlns:xlink="http://www.w3.org/1999/xlink" x="0px" y="0px"
	 viewBox="0 0 414 241.8" style="enable-background:new 0 0 414 241.8;" xml:space="preserve">
<style type="text/css">
	.st0{fill:#37B7B7;}
	.st1{fill:#0565A4;}
	.st2{fill:#FFFFFF;}
	.st3{fill:#0262A3;}
</style>
<g>
	<g>
		<path class="st0" d="M300.1,4.7L318.4,63c0,0-73.9,65.7-182,58.2l-15.7-55.9C120.7,65.3,245.4,43.5,300.1,4.7z"/>
		<path class="st1" d="M97.1,58.1l18.6,59.1c0,0,87.7-63.7,181.3-56.5L278.7,1.3C278.7,1.3,196.2-13.9,97.1,58.1z"/>
		<g>
			<path class="st2" d="M135,51.8h-11.5c0,0-8.2,0.8-8.2,12.4s7.8,12.4,7.8,12.4h12v-4.9h-10.7c0,0-3.1-0.4-3.1-8s4-7.2,4-7.2h9.9
				V51.8z"/>
			<polygon class="st2" points="140.2,51.8 140.2,76.7 146,76.7 146,66.8 154.3,66.8 154.3,76.7 160,76.7 160,51.8 154,51.8 
				154,61.8 146.1,61.8 146.1,51.8 			"/>
			<path class="st2" d="M164.4,51.8h5.7v17.1c0,0,0.8,3.7,5.4,3.7c4.6,0,4.7-3.7,4.7-3.7v-17h5.9v18.9c0,0-1.4,6.5-10.9,6.5
				s-11.7-6.5-11.7-6.5V51.8H164.4z"/>
			<polygon class="st2" points="196.3,59.7 196.3,76.7 190.3,76.7 190.3,51.9 198.1,51.9 206.6,68.8 206.6,51.8 212.1,51.8 
				212.1,76.7 205.4,76.7 			"/>
			<path class="st2" d="M238.1,56.5h-12.8c0,0-3.1,0.6-3.1,4.7s0,6.4,0,6.4s0.7,4.8,3.5,4.8s7.3,0,7.3,0v-5.9h-7.1v-5.1h12.2v15.2
				h-14.8c0,0-7.4-1.3-7.4-12.4s7.3-12.4,7.3-12.4h14.8V56.5z"/>
			<polygon class="st2" points="242.2,51.8 242.2,76.7 248.1,76.7 248.1,66.8 256.9,66.8 256.9,76.7 262.2,76.7 262.2,51.8 
				257.1,51.8 257.1,62.2 248.2,62.2 248.2,51.8 			"/>
			<path class="st2" d="M278.3,51.2c-7.2,0-13.1,5.9-13.1,13.1c0,7.2,5.9,13.1,13.1,13.1s13.1-5.9,13.1-13.1
				C291.4,57,285.5,51.2,278.3,51.2z M278.3,73.2c-3.7,0-6.8-4-6.8-8.9c0-4.9,3-8.9,6.8-8.9s6.8,4,6.8,8.9
				C285,69.2,282,73.2,278.3,73.2z"/>
			<path class="st3" d="M283,162c-15,0-27.1,15.9-27.1,35.5c0,19.6,12.1,35.5,27.1,35.5s27.1-15.9,27.1-35.5
				C310.1,177.9,298,162,283,162z M283,221.7c-7.7,0-14-10.9-14-24.2c0-13.4,6.3-24.2,14-24.2c7.7,0,14,10.9,14,24.2
				C297,210.9,290.7,221.7,283,221.7z"/>
		</g>
	</g>
	<path class="st3" d="M37.6,165.2v-5.7H22.7v5.7H4.3v7.1h18.3c0,0,0,19.1-22.6,20.7v7.3c0,0,20,2.5,29.9-13.4
		c0,0,9.2,15.6,32.3,13.5v5.2H34.5c0,0-25.4,2.9-25.4,17s23.3,19.1,34.5,19.1s39.4-5.3,31.2-24.5H59.3c0,0,2.4,3.3,2.4,6.2
		s-2.5,11-19.9,11.1C24.3,234.8,23,224.2,23,222.6s2.9-9.7,12.4-9.9c9.5-0.3,40.9,0,40.9,0V159H62.2v19.2H50.1v7.2h12.1v7.2
		c0,0-19,2.5-24-19.9H56v-7.2L37.6,165.2z"/>
	<path class="st3" d="M158.9,172.5v-7.1h-25.6v-8.5h-15.3v8.7H91.3v6.9h11.3c0,0-10.6,6.9-10.6,19.9c0,12.9,13,25.3,26.3,25.3v10H87
		v6.9h75.8v-6.8h-29.7v-10c0,0,25.1-3.6,25.1-26c0,0-0.1-9.5-5.1-14.1h-15.2c0,0,5.5,7.3,5.5,13.4c0,6.1-4.5,18.5-18.4,19.6
		c0,0-17.4-2.7-17-19.8c0,0,0.8-13.5,14.7-18.6L158.9,172.5z"/>
	<path class="st3" d="M187.9,162h-14.2v62.5c0,0,2.2,7,7.1,7s43.4,0,43.4,0v6H238v-49.9h10.8v-8.1H238v-19.9h-13.9v63.7h-36.1
		L187.9,162z"/>
	<rect x="317.2" y="159.3" class="st3" width="14.1" height="78.5"/>
	<rect x="340.2" y="225.8" class="st3" width="73.8" height="7.8"/>
	<path class="st3" d="M341.1,202.6v-8c0,0,27.3-1.9,28-34.8h14.9c0,0,3.5,32.1,28,35v7.8c0,0-23.3,0.9-34.6-19.6
		C377.4,183,370.4,202.3,341.1,202.6z"/>
</g>
</svg>
