<?xml version="1.0" encoding="utf-8"?>
<!-- Generator: Adobe Illustrator 25.2.3, SVG Export Plug-In . SVG Version: 6.00 Build 0)  -->
<svg version="1.1" id="Layer_1" xmlns="http://www.w3.org/2000/svg" xmlns:xlink="http://www.w3.org/1999/xlink" x="0px" y="0px"
	 viewBox="0 0 131.3 76.7" style="enable-background:new 0 0 131.3 76.7;" xml:space="preserve">
<style type="text/css">
	.st0{fill:#9F9E9E;}
	.st1{fill:#FFFFFF;}
</style>
<path class="st0" d="M95.2,1.5L101,20c0,0-23.4,20.9-57.7,18.4l-5-17.7C38.3,20.7,77.8,13.8,95.2,1.5z"/>
<path class="st0" d="M30.8,18.4l5.9,18.7c0,0,27.8-20.2,57.5-17.9L88.4,0.4C88.4,0.4,62.2-4.4,30.8,18.4z"/>
<g>
	<path class="st1" d="M42.8,16.4h-3.7c0,0-2.6,0.2-2.6,3.9s2.5,3.9,2.5,3.9h3.8v-1.5h-3.4c0,0-1-0.1-1-2.5s1.3-2.3,1.3-2.3h3.1V16.4
		z"/>
	<polygon class="st1" points="44.5,16.4 44.5,24.3 46.3,24.3 46.3,21.2 48.9,21.2 48.9,24.3 50.7,24.3 50.7,16.4 48.9,16.4 
		48.9,19.6 46.3,19.6 46.3,16.4 	"/>
	<path class="st1" d="M52.1,16.4h1.8v5.4c0,0,0.2,1.2,1.7,1.2c1.5,0,1.5-1.2,1.5-1.2v-5.4H59v6c0,0-0.4,2.1-3.5,2.1
		c-3,0-3.7-2.1-3.7-2.1v-6H52.1z"/>
	<polygon class="st1" points="62.3,18.9 62.3,24.3 60.4,24.3 60.4,16.5 62.8,16.5 65.5,21.8 65.5,16.4 67.3,16.4 67.3,24.3 
		65.2,24.3 	"/>
	<path class="st1" d="M75.5,17.9h-4.1c0,0-1,0.2-1,1.5s0,2,0,2s0.2,1.5,1.1,1.5c0.9,0,2.3,0,2.3,0v-1.9h-2.2v-1.6h3.9v4.8h-4.7
		c0,0-2.4-0.4-2.4-3.9s2.3-3.9,2.3-3.9h4.7V17.9z"/>
	<polygon class="st1" points="76.8,16.4 76.8,24.3 78.7,24.3 78.7,21.2 81.5,21.2 81.5,24.3 83.2,24.3 83.2,16.4 81.6,16.4 
		81.6,19.7 78.7,19.7 78.7,16.4 	"/>
	<path class="st1" d="M88.3,16.2c-2.3,0-4.2,1.9-4.2,4.2c0,2.3,1.9,4.2,4.2,4.2s4.2-1.9,4.2-4.2C92.4,18.1,90.6,16.2,88.3,16.2z
		 M88.3,23.2c-1.2,0-2.1-1.3-2.1-2.8c0-1.6,1-2.8,2.1-2.8s2.1,1.3,2.1,2.8C90.4,22,89.4,23.2,88.3,23.2z"/>
</g>
<path class="st0" d="M89.8,51.4c-4.7,0-8.6,5-8.6,11.3c0,6.2,3.8,11.3,8.6,11.3s8.6-5,8.6-11.3C98.4,56.4,94.5,51.4,89.8,51.4z
	 M89.8,70.3c-2.4,0-4.4-3.4-4.4-7.7c0-4.2,2-7.7,4.4-7.7s4.4,3.4,4.4,7.7C94.2,66.9,92.2,70.3,89.8,70.3z"/>
<path class="st0" d="M11.9,52.4v-1.8H7.2v1.8H1.4v2.2h5.8c0,0,0,6.1-7.2,6.6v2.3c0,0,6.4,0.8,9.5-4.2c0,0,2.9,4.9,10.2,4.3v1.7H11
	c0,0-8.1,0.9-8.1,5.4s7.4,6.1,11,6.1s12.5-1.7,9.9-7.8h-4.9c0,0,0.8,1,0.8,2c0,0.9-0.8,3.5-6.3,3.5c-5.5,0.1-6-3.3-6-3.8
	s0.9-3.1,3.9-3.1c3-0.1,13,0,13,0v-17h-4.5v6.1h-3.8v2.3h3.8v2.3c0,0-6,0.8-7.6-6.3h5.7v-2.3L11.9,52.4z"/>
<path class="st0" d="M50.4,54.7v-2.2h-8.1v-2.7h-4.8v2.8H29v2.2h3.6c0,0-3.3,2.2-3.3,6.3s4.1,8,8.3,8v3.2h-9.9v2.2h24v-2.2h-9.4
	v-3.2c0,0,7.9-1.1,7.9-8.3c0,0,0-3-1.6-4.5h-4.8c0,0,1.7,2.3,1.7,4.3s-1.4,5.9-5.8,6.2c0,0-5.5-0.8-5.4-6.3c0,0,0.2-4.3,4.7-5.9
	L50.4,54.7z"/>
<path class="st0" d="M59.6,51.4h-4.5v19.8c0,0,0.7,2.2,2.3,2.2s13.8,0,13.8,0v1.9h4.4V59.5h3.4V57h-3.4v-6.3h-4.4v20.2H59.6
	L59.6,51.4z"/>
<rect x="100.6" y="50.5" class="st0" width="4.5" height="24.9"/>
<rect x="107.9" y="71.6" class="st0" width="23.4" height="2.5"/>
<path class="st0" d="M108.2,64.3v-2.5c0,0,8.7-0.6,8.9-11h4.7c0,0,1.1,10.2,8.9,11.1v2.5c0,0-7.4,0.3-11-6.2
	C119.7,58.1,117.5,64.2,108.2,64.3z"/>
</svg>
