<?xml version="1.0" encoding="utf-8"?>
<!-- Generator: Adobe Illustrator 25.2.3, SVG Export Plug-In . SVG Version: 6.00 Build 0)  -->
<svg version="1.1" id="Layer_1" xmlns="http://www.w3.org/2000/svg" xmlns:xlink="http://www.w3.org/1999/xlink" x="0px" y="0px"
	 viewBox="0 0 16 16" style="enable-background:new 0 0 16 16;" xml:space="preserve">
<style type="text/css">
	.st0{fill:#45ABE1;}
</style>
<circle id="XMLID_379_" class="st0" cx="1.5" cy="9.6" r="0.4"/>
<path id="XMLID_378_" class="st0" d="M2.1,3.9c-0.4,0-0.8,0.1-1.2,0.3c-0.4,0.2-0.7,0.6-0.8,1C-0.2,6,0.3,6.7,0.8,7.3
	c0.1,0.1,0.2,0.2,0.3,0.4C1.6,8.1,2,8.5,2.3,9c0.4,0.9-0.7,0.8-0.7,0.8L1.5,9.9c0,0,0,0,0,0c0.6,0.3,1.3-0.3,1.1-0.9
	c0-0.1,0-0.1-0.1-0.2C2.4,8.2,2,7.8,1.6,7.3C1.4,7.2,1.3,7.1,1.2,7C0.7,6.4,0.4,5.9,0.6,5.3C0.8,4.8,1.4,4.4,2,4.4
	C2.8,4.4,3.5,5,4.2,6l0.4-0.3C3.8,4.5,3,3.9,2.1,3.9z"/>
<path id="XMLID_646_" class="st0" d="M8.9,11.7c-0.1-0.1-0.2-0.2-0.3-0.3c-0.2,0.1-0.5,0.1-0.7,0.1c-0.1,0-0.2,0-0.3,0
	c-0.4,0-0.8,0-1.2-0.1c-0.1,0.1-0.2,0.2-0.3,0.3c-0.3,0.3-1.4,0.8-1.3,1.3c0.5,1.2,4.7,1.2,5.2,0C10.3,12.5,9.2,11.9,8.9,11.7z
	 M7.4,13.4c-0.2,0-0.4,0.1-0.6,0.1c-0.5,0-0.8-0.1-1-0.3c-0.3-0.2-0.4-0.4-0.5-0.4c0,0,0-0.1,0-0.1c0,0,0.1,0,0.1,0
	c0,0,0.1,0.2,0.4,0.4c0.4,0.2,0.9,0.3,1.5,0.2c0,0,0.1,0,0.1,0.1C7.5,13.4,7.5,13.4,7.4,13.4z"/>
<path id="XMLID_643_" class="st0" d="M6.7,4.1C6.8,4.3,6.9,4.4,7,4.6c0.1,0,0.2,0,0.3,0c0.2,0,0.5,0,0.7,0.1
	c0.1-0.2,0.2-0.4,0.3-0.6l0.2-0.2c0.1-0.1,0.1-0.1,0-0.2L7.6,2.8c-0.1-0.1-0.1-0.1-0.2,0L6.5,3.7c-0.1,0.1-0.1,0.1,0,0.2L6.7,4.1z"
	/>
<path id="XMLID_440_" class="st0" d="M8,6.3c1,0,2-0.2,3.1-0.5c0,0-0.2-0.1-0.3-0.1c-0.1,0-0.2-0.1-0.3-0.1
	c-0.2-0.1-0.4-0.1-0.5-0.2C9,5,7.8,4.7,6.6,4.9C6,5,5.4,5.2,4.8,5.5C5.3,5.8,6.4,6.3,8,6.3z"/>
<path id="XMLID_642_" class="st0" d="M15,5.4c-1,0.4-2.3,1-3.6,0.6C7.6,7.1,5.5,6.2,4.6,5.6C2.9,6.8,2.9,8,3.4,9
	c0.4,0.7,1.8,2.5,4.6,2.3c2.7-0.1,7.3-4.6,8-5.9H15z M4.3,6.5c0,0-0.3,0.3-0.5,0.8c-0.2,0.6-0.1,1.3,0.3,2c0,0,0,0.1,0,0.1
	c0,0,0,0-0.1,0c0,0-0.1,0-0.1,0C3.3,8.5,3.4,7.7,3.6,7.2c0.2-0.5,0.6-0.8,0.6-0.9c0,0,0.1,0,0.1,0C4.3,6.4,4.3,6.4,4.3,6.5z"/>
</svg>
