<?xml version="1.0" encoding="utf-8"?>
<!-- Generator: Adobe Illustrator 25.2.3, SVG Export Plug-In . SVG Version: 6.00 Build 0)  -->
<svg version="1.1" id="Layer_1" xmlns="http://www.w3.org/2000/svg" xmlns:xlink="http://www.w3.org/1999/xlink" x="0px" y="0px"
	 viewBox="0 0 16 16" style="enable-background:new 0 0 16 16;" xml:space="preserve">
<style type="text/css">
	.st0{fill:#9A1918;}
	.st1{fill:#FFFFFF;}
</style>
<rect x="0" class="st0" width="16" height="16"/>
<g>
	<path class="st1" d="M13.9,14.4h-2.6V2.8c0,0,0-1.1,1.3-1.1s1.3,1.1,1.3,1.1V14.4z"/>
	<path class="st1" d="M4.7,14.4H2.1V2.8c0,0,0-1.1,1.3-1.1s1.3,1.1,1.3,1.1V14.4z"/>
	<path class="st1" d="M5.2,9.6c0,0,0-0.8,1.2-0.8s1.1,0.8,1.1,0.8v2.9c0,0.2,0.1,0.3,0.4,0.3c0.2,0,0.4-0.1,0.4-0.3V2.7
		c0,0,0-1.1,1.3-1.1s1.3,1.1,1.3,1.1v9.7c0,1.4-1,2.1-2.9,2.1c-0.7,0-1.3-0.2-1.8-0.5c-0.5-0.3-0.8-0.8-0.8-1.3V9.6z"/>
</g>
</svg>
