<?xml version="1.0" encoding="utf-8"?>
<!-- Generator: Adobe Illustrator 25.2.3, SVG Export Plug-In . SVG Version: 6.00 Build 0)  -->
<svg version="1.1" id="Layer_1" xmlns="http://www.w3.org/2000/svg" xmlns:xlink="http://www.w3.org/1999/xlink" x="0px" y="0px"
	 viewBox="0 0 1570 862" style="enable-background:new 0 0 1570 862;" xml:space="preserve">
<style type="text/css">
	.st0{fill:#E4E4E5;}
	.st1{clip-path:url(#SVGID_2_);}
	.st2{fill:#5F5F5F;}
	.st3{fill:#FBF4B2;}
	.st4{fill:#ED6980;}
	.st5{fill:#020203;}
	.st6{fill:#FBD7C6;}
	.st7{fill:#FFFFFF;}
	.st8{fill:#E73831;}
	.st9{fill:#F5A996;}
	.st10{fill:#413E3D;}
	.st11{fill:#EB5846;}
	.st12{fill:#020203;stroke:#020203;stroke-width:2.8764;stroke-miterlimit:10;}
	.st13{fill:#FBD7C6;stroke:#020203;stroke-width:3.6654;stroke-linecap:round;stroke-linejoin:round;stroke-miterlimit:10;}
	.st14{fill:none;stroke:#020203;stroke-width:3.6654;stroke-linecap:round;stroke-linejoin:round;stroke-miterlimit:10;}
	.st15{fill:#320F10;}
	.st16{fill:#A01A16;}
	.st17{fill:#7C170F;}
	.st18{fill:#4B0F11;}
	.st19{fill:#C0413A;}
	.st20{fill:#DF0A14;}
	.st21{fill:#A41A16;}
	.st22{fill:#BD1818;}
	.st23{fill:#E24017;}
	.st24{fill:#1F090B;}
	.st25{fill:#E73251;}
	.st26{fill:none;stroke:#242A56;stroke-width:4.2615;stroke-linecap:round;stroke-linejoin:round;}
	.st27{fill:#E73251;stroke:#242A56;stroke-width:4.2615;stroke-linecap:round;stroke-linejoin:round;}
	.st28{fill:#FFFFFF;stroke:#242A56;stroke-width:4.712;stroke-linecap:round;stroke-linejoin:round;}
	.st29{fill:#242A56;}
	.st30{fill:#FFFFFF;stroke:#242A56;stroke-width:4.712;}
	.st31{fill:none;stroke:#242A56;stroke-width:4.9795;stroke-linecap:round;stroke-linejoin:round;}
	.st32{fill:none;}
</style>
<g>
	<rect x="-0.3" y="0.4" class="st0" width="1570" height="862"/>
	<g>
		<defs>
			<rect id="SVGID_1_" x="-0.3" y="0.8" width="1570" height="861.6"/>
		</defs>
		<clipPath id="SVGID_2_">
			<use xlink:href="#SVGID_1_"  style="overflow:visible;"/>
		</clipPath>
		<g class="st1">
			<polygon class="st2" points="1634.9,-36.4 1318.6,129.3 1641.6,-31.2 			"/>
			<polygon class="st2" points="1609.6,-36.4 1326.2,113.7 1240.1,161.9 1586.8,-38 			"/>
			<polygon class="st2" points="1641.2,-13.6 1378.9,118.4 1641.2,-4.3 			"/>
			<polygon class="st2" points="1526.1,-35 1311,96.5 1510.1,-35 			"/>
			<line class="st2" x1="1641.6" y1="31.4" x2="1389.4" y2="143.2"/>
			<line class="st2" x1="1637.7" y1="-82.4" x2="1413.6" y2="50"/>
			<line class="st2" x1="1455.2" y1="-36.4" x2="1194.6" y2="137"/>
			<line class="st2" x1="1641.6" y1="68.7" x2="1518.5" y2="116.8"/>
			<polygon class="st2" points="1364.1,-36.4 1212.3,92 1346.4,-32.3 			"/>
		</g>
		<g class="st1">
			<polygon class="st2" points="-234.9,168.1 136.9,282.3 -229.8,162.3 			"/>
			<polygon class="st2" points="-225.1,182.4 110.7,284.1 216.5,313.9 -218.5,195.9 			"/>
			<polygon class="st2" points="-203.2,155.7 97.1,252.5 -189.2,152.1 			"/>
			<polygon class="st2" points="-190.4,229.1 90.7,299.4 -184.2,238.1 			"/>
			<line class="st2" x1="-135.8" y1="137.9" x2="130.3" y2="236.8"/>
			<line class="st2" x1="-305.1" y1="184.5" x2="-19" y2="259.5"/>
			<line class="st2" x1="-164.9" y1="269.7" x2="196.9" y2="349.4"/>
			<line class="st2" x1="-79.9" y1="123.4" x2="40.4" y2="174.2"/>
			<polygon class="st2" points="-129.4,321.1 122.4,356.9 -116.3,329.5 			"/>
		</g>
		<g class="st1">
			<polygon class="st2" points="1872,494 1457.4,513.6 1872.4,500.6 			"/>
			<polygon class="st2" points="1851.5,484.8 1478.4,503.8 1362.7,511.6 1834.6,475.3 			"/>
			<polygon class="st2" points="1855.2,514.6 1516.6,526.6 1846.3,522.2 			"/>
			<polygon class="st2" points="1782.7,455.8 1482.7,484.3 1769.7,450 			"/>
			<line class="st2" x1="1812.3" y1="551.2" x2="1501.3" y2="550.5"/>
			<line class="st2" x1="1918.4" y1="457.8" x2="1610.2" y2="483.8"/>
			<line class="st2" x1="1726.8" y1="429" x2="1349.7" y2="475"/>
			<line class="st2" x1="1776.6" y1="581.3" x2="1630.9" y2="575.8"/>
			<polygon class="st2" points="1653.1,396.1 1407.2,445 1634.8,393.1 			"/>
		</g>
		<g class="st1">
			<polygon class="st2" points="-303.5,580.3 110,553.4 -302,586.8 			"/>
			<polygon class="st2" points="-286.1,569 86.4,546.1 202.5,540.9 -272.3,557.8 			"/>
			<polygon class="st2" points="-280.9,598.8 55.6,572.8 -269.9,605.2 			"/>
			<polygon class="st2" points="-227,532.8 76.5,527.5 -216,525.7 			"/>
			<line class="st2" x1="-227.9" y1="629.9" x2="77.8" y2="594.6"/>
			<line class="st2" x1="-359.8" y1="549.9" x2="-49.1" y2="541.2"/>
			<line class="st2" x1="-179.9" y1="500.3" x2="204.5" y2="503.5"/>
			<line class="st2" x1="-183.8" y1="655.6" x2="-42.2" y2="633.9"/>
			<polygon class="st2" points="-117.2,459.7 139.1,480.4 -100.1,454.7 			"/>
		</g>
		<g class="st1">
			<polygon class="st2" points="376.4,-201.1 504.6,41.7 386.7,-202.9 			"/>
			<polygon class="st2" points="366.7,-186.7 484.2,31.4 523.7,98.6 355.6,-174.4 			"/>
			<polygon class="st2" points="413.3,-196.3 511.6,2.9 427.3,-192.8 			"/>
			<polygon class="st2" points="336.1,-139 451.7,33.3 330,-129.9 			"/>
			<line class="st2" x1="481" y1="-178.9" x2="552.8" y2="6.9"/>
			<line class="st2" x1="308.1" y1="-220.3" x2="421.7" y2="-42.5"/>
			<line class="st2" x1="307.6" y1="-99.2" x2="468.9" y2="115"/>
			<line class="st2" x1="537.1" y1="-164.6" x2="562.5" y2="-76.4"/>
			<polygon class="st2" points="272.7,-47.6 407.8,87.7 272.2,-35.9 			"/>
		</g>
		<g class="st1">
			<polygon class="st2" points="1838.1,175.8 1446,260.7 1841.3,182.1 			"/>
			<polygon class="st2" points="1814.5,170.2 1462.2,247.9 1353.7,273.9 1794.1,163.7 			"/>
			<polygon class="st2" points="1831.3,198.6 1509.3,264 1825.9,207.3 			"/>
			<polygon class="st2" points="1736,152.7 1458.3,228.1 1721,149.2 			"/>
			<line class="st2" x1="1804.7" y1="240.5" x2="1504" y2="289.4"/>
			<line class="st2" x1="1867.6" y1="133.4" x2="1581" y2="207.7"/>
			<line class="st2" x1="1670.4" y1="136.2" x2="1325.7" y2="240.7"/>
			<line class="st2" x1="1782.9" y1="275.3" x2="1639.9" y2="293.2"/>
			<polygon class="st2" points="1585.4,116.1 1368.6,202.6 1566.4,116.1 			"/>
		</g>
		<g class="st1">
			<polygon class="st2" points="-69.6,-41.8 246.7,123.9 -76.3,-36.6 			"/>
			<polygon class="st2" points="-44.3,-41.8 239.1,108.4 325.2,156.5 -21.5,-43.3 			"/>
			<polygon class="st2" points="-77.5,-19 184.7,113 -77.5,-9.7 			"/>
			<polygon class="st2" points="39.2,-40.4 254.3,91.1 55.3,-40.4 			"/>
			<line class="st2" x1="-76.3" y1="26" x2="175.9" y2="137.9"/>
			<line class="st2" x1="-72.4" y1="-87.8" x2="151.7" y2="44.6"/>
			<line class="st2" x1="110.1" y1="-41.8" x2="370.7" y2="131.7"/>
			<line class="st2" x1="-76.3" y1="63.3" x2="46.8" y2="111.5"/>
			<polygon class="st2" points="201.2,-41.8 353,86.6 218.9,-37.6 			"/>
		</g>
		<g class="st1">
			<polygon class="st2" points="1120.2,-211 985.7,30.5 1110,-212.9 			"/>
			<polygon class="st2" points="1129.6,-196.5 1006.4,20.4 965.1,87.3 1140.3,-184.1 			"/>
			<polygon class="st2" points="1083.1,-206.7 979.6,-8.5 1069,-203.3 			"/>
			<polygon class="st2" points="1158.8,-148.5 1038.8,22.6 1164.7,-139.4 			"/>
			<line class="st2" x1="1015.1" y1="-189.8" x2="938.4" y2="-4.8"/>
			<line class="st2" x1="1189" y1="-229.5" x2="1070.8" y2="-52.9"/>
			<line class="st2" x1="1186.4" y1="-108.5" x2="1019.5" y2="104.1"/>
			<line class="st2" x1="958.6" y1="-176.1" x2="930.9" y2="-88.2"/>
			<polygon class="st2" points="1219.9,-56.5 1081.2,77.4 1220.1,-44.8 			"/>
		</g>
		<g class="st1">
			<polygon class="st2" points="-60.6,901.9 255.7,736.3 -67.3,896.7 			"/>
			<polygon class="st2" points="-35.3,901.9 248.1,751.8 334.1,703.6 -12.6,903.5 			"/>
			<polygon class="st2" points="-68.8,879.1 193.5,747.1 -68.8,869.8 			"/>
			<polygon class="st2" points="48.2,901.7 263.3,770.2 64.2,901.7 			"/>
			<line class="st2" x1="-67.3" y1="834.1" x2="184.8" y2="722.3"/>
			<line class="st2" x1="-63.4" y1="947.9" x2="160.7" y2="815.5"/>
			<line class="st2" x1="119" y1="901.9" x2="379.7" y2="728.5"/>
			<line class="st2" x1="-67.3" y1="796.8" x2="55.8" y2="748.7"/>
			<polygon class="st2" points="210.1,901.9 362,773.5 227.8,897.8 			"/>
		</g>
		<g class="st1">
			<polygon class="st2" points="1625.3,956.3 1333.5,774.5 1617.4,960.8 			"/>
			<polygon class="st2" points="1623.5,940.8 1359.3,778 1275,728.8 1624.4,926.8 			"/>
			<polygon class="st2" points="1588.8,962.5 1355.6,811.3 1573.7,963.1 			"/>
			<polygon class="st2" points="1616.5,889.7 1387.5,767.4 1615.4,879.9 			"/>
			<line class="st2" x1="1515.6" y1="965.2" x2="1315.9" y2="818.8"/>
			<line class="st2" x1="1700.3" y1="954.7" x2="1469.1" y2="827"/>
			<line class="st2" x1="1612.5" y1="846.3" x2="1312.1" y2="699.1"/>
			<line class="st2" x1="1455" y1="967.9" x2="1368" y2="896"/>
			<polygon class="st2" points="1606,790.6 1386.6,706.7 1598,780 			"/>
		</g>
		<g class="st1">
			<polygon class="st2" points="832.2,1088.3 869.5,834.1 821.5,1087.5 			"/>
			<polygon class="st2" points="850.3,1077.5 881.8,848.5 888.4,777.1 868.3,1068.8 			"/>
			<polygon class="st2" points="801,1075.2 837.9,868.3 790.3,1068.6 			"/>
			<polygon class="st2" points="909.3,1041.1 913.1,854.8 920.7,1034.3 			"/>
			<line class="st2" x1="750.1" y1="1042.7" x2="802.9" y2="854.6"/>
			<line class="st2" x1="882.7" y1="1122.4" x2="891.9" y2="931.6"/>
			<line class="st2" x1="960.6" y1="1011.2" x2="949.2" y2="775.4"/>
			<line class="st2" x1="707.7" y1="1016.1" x2="740.8" y2="928.8"/>
			<polygon class="st2" points="1025.7,972.1 987.9,815.1 1033.7,961.5 			"/>
		</g>
		<g class="st1">
			<polygon class="st2" points="354.9,1089.9 489.5,848.4 365.2,1091.8 			"/>
			<polygon class="st2" points="345.6,1075.5 468.7,858.5 510,791.7 334.8,1063.1 			"/>
			<polygon class="st2" points="392,1085.7 495.5,887.4 406.2,1082.2 			"/>
			<polygon class="st2" points="316.3,1027.5 436.4,856.3 310.4,1018.3 			"/>
			<line class="st2" x1="460.1" y1="1068.8" x2="536.7" y2="883.7"/>
			<line class="st2" x1="286.2" y1="1108.4" x2="404.3" y2="931.8"/>
			<line class="st2" x1="288.8" y1="987.4" x2="455.6" y2="774.8"/>
			<line class="st2" x1="516.6" y1="1055.1" x2="544.2" y2="967.1"/>
			<polygon class="st2" points="255.3,935.4 393.9,801.5 255,923.8 			"/>
		</g>
	</g>
</g>
<g>
	<circle class="st3" cx="804.8" cy="397.7" r="305"/>
	<g>
		<path class="st4" d="M918,476.3c-2.6-7.6-6.3-15.1-10.7-22.3c-13.5-22.4-34.6-54.9-64.6-53.9l1.7,7.9c-2.9-1.6-5.8-3-8.9-4.2
			c-19.9-7.9-42.6-8.8-63.5-5.4c-19.4,3.2-33.7,20.4-47.2,34.4c-13.3,13.8-13.5,34.5-17.3,52.3c-6.6,30.8-2.4,56.8-3,87.7
			c-0.4,18.3-0.9,72.2,0.1,90.6c26.8,1.5,53.9,3.7,80.9,2.8c35-1.1,69.8-4.7,104.8-6.4c5.4-1.3,2.7-43.5,2.7-48.2
			c0-21.7-5-43.6-4-64.6c-0.4,8.3,18.1-6.4,19.2-7.8C924.5,518.9,925.2,497.1,918,476.3z"/>
		<g>
			<path class="st5" d="M919.7,475.8c-3.1-8.8-7.4-17-12.2-24.9c-3.6-5.9-7.3-11.7-11.3-17.3c-8.3-11.6-18.2-23-31-29.8
				c-6.9-3.7-14.6-5.7-22.5-5.5c-1.2,0-2,1.1-1.7,2.3c0.6,2.6,1.2,5.2,1.7,7.9c0.9-0.7,1.7-1.3,2.6-2c-12.9-7-27.3-10.4-41.9-11.4
				c-7.2-0.5-14.4-0.3-21.6,0.3c-6.5,0.6-13.1,1.4-19.2,3.8c-11.6,4.6-21,13.4-29.6,22.3c-2.1,2.2-4.2,4.4-6.3,6.6
				c-2.2,2.3-4.4,4.5-6.3,6.9c-3.7,4.8-6.3,10.4-8.1,16.1c-1.8,5.9-2.9,11.9-3.9,17.9c-1.1,6.4-2.3,12.8-3.5,19.2
				c-2.8,14.6-3.3,29.4-3,44.3c0.3,14,0.9,28,0.7,42.1c-0.2,8.5-0.2,16.9-0.3,25.4c-0.2,19.6-0.4,39.2,0.2,58.8c0,1.5,0.1,3,0.2,4.5
				c0.1,1,0.8,1.7,1.8,1.8c24.8,1.4,49.7,3.3,74.6,3c24.9-0.4,49.8-2.5,74.6-4.3c6.2-0.4,12.3-0.9,18.5-1.3c3.2-0.2,6.4-0.4,9.5-0.6
				c1.4-0.1,2.8-0.2,4.2-0.2c1.5-0.1,3.3,0.1,4.7-0.3c1.7-0.5,2.5-2.2,2.9-3.7c0.7-2.2,0.9-4.5,1.2-6.8c1.2-11.8,0.5-23.8,0-35.7
				c-0.3-7.8-0.5-15.6-1.2-23.3c-1.1-12-2.8-24.1-3-36.2c-0.1-2.9,0-5.9,0.1-8.8c-1.2,0-2.4,0-3.6,0c-0.1,1.9,0.8,3.7,2.7,4.2
				c1.9,0.5,4-0.4,5.7-1.1c4.2-1.9,8-4.7,11.6-7.5c1.4-1.1,2.4-2.1,3.5-3.6c2.8-3.6,5.3-7.5,7.3-11.7c3.6-7.5,5.7-15.7,6.1-24
				C924.5,493.9,922.8,484.6,919.7,475.8c-0.7-2.2-4.2-1.2-3.4,0.9c4.9,14.3,6.1,29.6,0.7,43.9c-1.4,3.8-3.3,7.4-5.4,10.8
				c-1.5,2.4-3.1,5.1-5.1,7c-2.7,2.4-5.7,4.6-8.9,6.5c-1.8,1.1-3.6,2.1-5.6,2.6c-0.1,0-0.6,0.1-0.5,0.1c0.2,0-0.3,0-0.3,0
				c-0.5,0,0,0-0.2,0c-0.4,0,0,0-0.1,0c-0.1,0.1-0.1-0.1,0,0.1c0.1,0.3-0.2-0.4,0,0.1c-0.2-0.4-0.1-0.3-0.1-0.9
				c0.1-2.3-3.5-2.3-3.6,0c-0.5,11.8,0.8,23.7,2,35.4c0.6,5.9,1.2,11.9,1.6,17.8c0.3,4.2,0.3,8.3,0.4,12.5c0.3,11,0.9,21.9,0.5,32.9
				c-0.1,2.6-0.3,5.5-0.7,7.8c-0.2,1-0.3,1.9-0.6,2.9c-0.1,0.4-0.2,0.8-0.4,1.1c0-0.1,0.1-0.1-0.1,0.2c-0.1,0.1-0.2,0.3-0.2,0.4
				c-0.1,0.2,0.2-0.1,0,0c-0.2,0.1-0.3,0.1,0.1,0c-0.4,0.1,0.3,0,0.1,0c-0.7,0-1.5,0.1-2.2,0.1c-3,0.2-6,0.3-9,0.5
				c-6.2,0.4-12.3,0.8-18.5,1.2c-24.3,1.7-48.7,3.7-73,4.5c-24.6,0.8-49.1-0.8-73.6-2.2c-3-0.2-6-0.4-8.9-0.5
				c0.6,0.6,1.2,1.2,1.8,1.8c-0.9-18.2-0.6-36.5-0.5-54.7c0.1-20.8,0.7-41.7,0.1-62.5c-0.4-14.4-0.9-28.9,0.5-43.2
				c0.7-7.2,2.2-14.2,3.5-21.2c1.1-6,1.9-12.1,3.1-18.2c1.1-5.8,2.5-11.6,4.9-17.1c1.2-2.7,2.6-5.3,4.2-7.7c1.7-2.5,3.8-4.7,5.9-6.9
				c8.3-8.8,16.6-18,26.8-24.6c5-3.2,10.5-5.8,16.4-6.9c6.8-1.3,13.8-1.8,20.6-2c14.2-0.3,28.5,1.6,41.8,6.7
				c3.4,1.3,6.6,2.8,9.8,4.5c1.4,0.8,2.9-0.5,2.6-2c-0.6-2.6-1.2-5.2-1.7-7.9c-0.6,0.8-1.1,1.5-1.7,2.3c13.8-0.4,25.8,6.7,35.5,16
				c9.9,9.5,17.7,21.1,24.9,32.7c5.2,8.4,9.9,16.9,13.1,26.2C917.1,478.9,920.5,478,919.7,475.8z"/>
		</g>
	</g>
	<g>
		<g>
			<path class="st6" d="M827.3,402.8c0.4-1.8,0.8-3.7,1-5.5c2.8-21.9-33.2-20.3-44.9-12.6c-17.7,11.7-10.6,40.5,10,44.7
				C811.5,433.2,823.4,419,827.3,402.8z"/>
			<g>
				<path class="st5" d="M829.2,403.4c1.4-5.7,2.3-12.1-1.4-17.2c-2.8-3.9-7.2-6.2-11.8-7.4c-5.1-1.3-10.5-1.5-15.7-1.1
					c-5,0.5-9.9,1.5-14.6,3.5c-4.9,2.1-9,5.9-11.5,10.6c-2.8,5.2-3.4,11.3-2.5,17c1,5.7,3.7,11.1,7.8,15.2
					c4.6,4.7,10.6,7.3,17.1,7.9c7.1,0.6,14-1.6,19.5-6.1c5.5-4.5,9.2-10.8,11.6-17.4C828.3,406.8,828.8,405.1,829.2,403.4
					c0.6-2.5-3.3-3.6-3.9-1.1c-2.9,11.6-10.6,24.1-23.5,25.6c-5.9,0.7-12-0.8-16.8-4.3c-4-2.9-7-7.3-8.5-12
					c-3-9.5-0.2-20.6,8.9-25.7c3.4-1.9,7.5-3,11.7-3.7c4.3-0.7,9.5-0.9,13.8-0.3c2.2,0.3,4.4,0.8,6.6,1.6c0.9,0.3,1.6,0.6,2.6,1.2
					c0.5,0.3,0.9,0.5,1.3,0.8c0.5,0.3,0.7,0.5,1,0.7c0.4,0.3,0.7,0.6,1,1c0.2,0.2,0.3,0.3,0.5,0.5c0.2,0.2,0.3,0.4,0.3,0.4
					c0.3,0.4,0.5,0.8,0.8,1.2c0.1,0.2,0.2,0.4,0.3,0.6c0.1,0.1,0.3,0.7,0.2,0.4c0.9,2.1,1,3.9,0.8,6.2c-0.2,2-0.6,4-1,5.9
					C824.7,404.8,828.6,405.9,829.2,403.4z"/>
			</g>
		</g>
		<g>
			<path class="st7" d="M799.1,425c0,0.1-8.7-2-9.7-2.5c-2.9-1.6-5.6-3.8-7.6-6.4c-3-3.9-2.5-9.5-5.3-13c-9.6,8.6-15.6,33-0.1,38.6
				C785.4,444.9,802.9,435.7,799.1,425z"/>
			<g>
				<path class="st5" d="M798.1,423.3C798.1,423.3,798.1,423.3,798.1,423.3c0.3-0.1,0.7-0.2,1-0.3c0.8,0,0.3,0-0.1,0
					c-0.4-0.1-0.8-0.2-1.2-0.3c-1.1-0.3-2.2-0.5-3.3-0.8c-1.1-0.3-2.1-0.6-3.2-0.9c-0.3-0.1-0.7-0.2-1-0.3c-0.3-0.1,0.6,0.3,0,0
					c-0.4-0.3-0.8-0.5-1.3-0.7c-3-1.9-5.9-4.7-7.1-8.1c-1.1-3.3-1.5-6.9-3.6-9.7c-0.8-1.1-2.1-1.4-3.2-0.4c-4,3.6-6.7,8.8-8.4,13.9
					c-1.7,5.3-2.5,11.3-1.1,16.7c1.4,5.4,5.3,9.9,10.7,11.5c5.5,1.7,11.9-0.3,16.6-3.2c5.5-3.3,10.3-9.4,8-16.1
					c-0.8-2.5-4.7-1.4-3.9,1.1c1.5,4.4-1.4,8.4-5.1,10.9c-3.8,2.6-9.1,4.6-13.6,3.6c-10.1-2.1-10.4-14.3-8.1-22.3
					c1.4-4.9,3.9-9.8,7.7-13.3c-1.1-0.1-2.1-0.3-3.2-0.4c2.3,3.1,2.4,7.2,4,10.6c1.7,3.8,5.2,6.9,8.7,9c2,1.2,4.3,1.6,6.5,2.2
					c1.1,0.3,2.2,0.6,3.4,0.8c0.9,0.2,1.9,0.6,2.8,0C802.4,425.4,800.3,421.9,798.1,423.3z"/>
			</g>
		</g>
		<g>
			<path class="st7" d="M801.9,425c6.1-0.1,12-3,16-7.6c2.6-2.8,7.9-10.3,4.6-13.9c11,7.8,18.3,32.2,2,38.1
				C815.6,444.9,798.1,435.7,801.9,425z"/>
			<g>
				<path class="st5" d="M801.9,427c7.2-0.2,13.9-3.7,18.4-9.2c3.2-4,7.8-10.8,3.6-15.7c-0.8,1.1-1.6,2.1-2.5,3.2
					c3.6,2.5,6.4,6.8,8.2,10.9c1.8,4.2,2.9,9.2,2.2,13.6c-0.7,4.4-3.1,7.9-7.3,9.7c-4.3,1.8-9.6,0.3-13.6-1.9
					c-2.3-1.3-4.6-3-6.1-5.3c-1.4-2.2-1.8-4.4-0.9-6.8c0.8-2.5-3.1-3.5-3.9-1.1c-2,6,1.6,11.5,6.3,15c4.7,3.5,11.1,5.6,16.9,4.6
					c5.6-1,10.1-5.3,11.9-10.5c1.8-5.3,1-11.3-0.8-16.5c-2.1-5.9-5.6-11.6-10.8-15.3c-2-1.4-3.9,1.5-2.5,3.2
					c1.1,1.2,0.2,3.5-0.5,4.9c-0.9,2-2.2,3.9-3.7,5.6c-3.8,4.4-9.2,7.3-15,7.5C799.3,423,799.3,427.1,801.9,427z"/>
			</g>
		</g>
	</g>
	<g>
		<g>
			<path class="st5" d="M899.2,278.3c0.9,10.9-5.8,24.7-16.9,27.1c-11.2,2.3-23.8-2.1-32.4-9.4c-10-8.5-16.3-19.5-26.3-28.1
				c-8.1-6.9-12.2-11.9-21.9-14.8c-12.4-3.7-28.6-8-37.7-17.8c-10.8-11.6,0.6-32.7,11.7-40.4c13-9,32.4-7.1,46.7-3.6
				c24.6,6,54.2,36.1,56.1,62.1c0.6,8.7,0.4,27.1,11.9,29.7C894.5,284,898,282.6,899.2,278.3z"/>
			<g>
				<path class="st5" d="M896.7,278.3c0.5,5.9-1.2,11.9-4.5,16.9c-1.5,2.3-3.5,4.4-5.8,5.8c-2.6,1.6-5.5,2.2-8.5,2.4
					c-7.3,0.4-14.7-1.8-21-5.6c-6.6-3.9-11.8-9.9-16.7-15.7c-2.6-3.1-5.2-6.2-7.9-9.2c-2.7-3-5.7-5.7-8.7-8.3
					c-5.1-4.5-10-9.4-16.3-12.1c-3.3-1.5-6.8-2.4-10.3-3.4c-3.4-1-6.7-2.1-10-3.2c-6.4-2.3-12.9-5.1-18.1-9.4
					c-2.3-1.9-4.5-4.1-5.6-6.9c-1-2.6-1.2-5.2-1-8c0.5-6,3.6-12,7.1-16.9c3.6-4.9,8.1-8.7,13.7-10.9c6.6-2.5,13.8-3.1,20.8-2.8
					c6.6,0.3,13.3,1.4,19.7,3.2c5.9,1.7,11.4,4.6,16.5,7.9c11.3,7.4,21.1,17.5,28,29c3.2,5.4,5.8,11.1,7.1,17.2
					c1,4.8,0.9,9.8,1.4,14.7c0.5,5.3,1.4,11,4.2,15.7c2.9,4.9,8.6,8.3,14.4,6.9c3.3-0.8,5.5-3.5,6.4-6.6c0.9-3.1-4-4.4-4.8-1.3
					c-0.4,1.2-0.9,2.2-1.9,2.7c-0.9,0.5-2,0.6-3.2,0.4c-1.4-0.2-2.1-0.5-3.2-1.1c-0.2-0.1-0.5-0.3-0.7-0.5c-0.3-0.2,0.2,0.2-0.1-0.1
					c-0.1-0.1-0.2-0.2-0.3-0.2c-0.5-0.4-0.9-0.9-1.3-1.3c-0.2-0.2-0.4-0.6-0.8-1.1c-0.3-0.5-0.7-1.1-0.9-1.7
					c-0.5-0.9-0.9-2.1-1.2-3.3c-0.7-2.5-1.2-5.2-1.5-7.6c-0.6-5.2-0.5-10.5-1.4-15.7c-1.2-6.4-3.8-12.6-7-18.3
					c-7-12.4-17.3-23.1-29-31.1c-5.4-3.7-11.2-6.8-17.4-8.9c-6.5-2.2-13.5-3.2-20.2-3.8c-7.3-0.6-14.9-0.3-22,1.8
					c-6.5,1.9-12.2,5.5-16.7,10.6c-4.4,5-8,11.1-9.7,17.6c-1.6,6.1-1.5,13.1,2.2,18.5c4,5.8,10.6,9.7,16.9,12.6
					c6.7,3.1,13.7,5.2,20.7,7.3c3.3,1,6.6,2,9.7,3.7c2.8,1.6,5.3,3.6,7.7,5.7c3,2.6,6,5.1,8.8,7.8c3,2.8,5.8,5.9,8.4,9.1
					c5.2,6.1,10.2,12.6,16.5,17.7c6.1,4.9,13.5,8.4,21.3,9.5c7.1,1.1,14.7,0.5,20.5-4c5.2-4,8.6-10.2,10.1-16.5c0.7-3,1-6.2,0.8-9.2
					c-0.1-1.4-1.1-2.5-2.5-2.5C897.9,275.8,896.5,276.9,896.7,278.3z"/>
			</g>
		</g>
		<g>
			<g>
				<g>
					<path class="st6" d="M862.5,331.3c2-5.5,7.8-10.3,13.8-9.2c6.7,1.3,8.5,9.7,6,15.2c-1.3,3-4.2,5.1-6.1,7.6
						c-2.4,3.2-2.7,6.5-4.3,10c-1.5,3.3-7.6,11.7-11.8,6.1"/>
					<g>
						<path class="st5" d="M864.2,331.8c1.6-4.3,5.8-8.2,10.6-8c4,0.1,6.4,3.6,6.7,7.4c0.1,1.8-0.1,3.7-0.8,5.3
							c-1,2.4-3.2,4.1-4.8,6.1c-2,2.3-3.2,4.8-4.1,7.7c-0.7,2-1.3,4-2.4,5.8c-1,1.6-2.3,3.3-4,4.4c-1.6,1.1-2.7,1-3.9-0.6
							c-0.6-0.8-1.9-0.6-2.5,0c-0.8,0.7-0.6,1.8,0,2.5c1.5,2,3.9,2.9,6.3,2.1c2.2-0.7,4-2.4,5.4-4.1c1.4-1.7,2.6-3.6,3.4-5.7
							c1.2-3.1,1.9-6.4,3.9-9c2-2.6,4.7-4.6,6-7.7c1-2.2,1.4-4.8,1.2-7.2c-0.5-5-3.5-9.7-8.7-10.5c-7.1-1.1-13.3,4.2-15.7,10.5
							C859.9,333,863.4,333.9,864.2,331.8L864.2,331.8z"/>
					</g>
				</g>
				<g>
					<g>
						<path class="st5" d="M866,341.8c0.2-0.6,0.5-1.1,0.9-1.6c0.1-0.1,0.2-0.3,0.3-0.4c0.2-0.3-0.1,0.1,0.1-0.1
							c0.2-0.2,0.4-0.5,0.6-0.7c0.4-0.5,0.9-0.9,1.4-1.3c0.6-0.5,0.7-0.6,1.3-1c2.2-1.5,4.5-2.8,6.8-4.1c0.8-0.5,1.1-1.6,0.6-2.5
							c-0.5-0.8-1.6-1.1-2.5-0.6c-4.6,2.6-10.3,5.3-12.6,10.4c-0.4,0.9-0.3,1.9,0.6,2.5C864.3,342.9,865.6,342.7,866,341.8
							L866,341.8z"/>
					</g>
				</g>
				<g>
					<g>
						<path class="st5" d="M866.3,336.5c-0.5,3.8-0.4,7.6-0.4,11.3c0,0.9,0.8,1.8,1.8,1.8c1,0,1.8-0.8,1.8-1.8c0-3.8,0-7.6,0.4-11.3
							c0.1-0.9-0.9-1.8-1.8-1.8C867,334.7,866.4,335.5,866.3,336.5L866.3,336.5z"/>
					</g>
				</g>
			</g>
			<g>
				<g>
					<path class="st6" d="M732,331.9c-0.9-5.2-6.8-8.1-11.8-7.2c-6.7,1.3-8.5,9.7-6,15.2c1.3,3,4.2,5.1,6.1,7.6
						c2.4,3.2,2.7,6.5,4.3,10c1.5,3.3,7.6,11.7,11.8,6.1"/>
					<g>
						<path class="st5" d="M733.7,331.5c-1.1-5.5-6.7-8.9-12.1-8.7c-5.3,0.2-9.2,4.1-10.1,9.3c-0.4,2.4-0.3,5,0.5,7.3
							c1,3,3.1,5.1,5.2,7.4c1,1.1,1.9,2.2,2.6,3.6c0.8,1.6,1.3,3.3,1.9,4.9c0.8,2.3,1.7,4.5,3.2,6.4c1.5,2.1,3.4,4.2,5.9,5.2
							c2.5,1,5.1,0.2,6.8-1.9c0.6-0.8,0.7-1.8,0-2.5c-0.6-0.6-1.9-0.8-2.5,0c-1,1.3-1.9,1.7-3.4,0.9c-1.5-0.8-2.7-2.2-3.7-3.6
							c-2.8-3.9-3.2-8.8-5.8-12.7c-1.5-2.2-3.6-3.9-5.2-6c-1.2-1.6-1.9-3.6-2-5.6c-0.2-3.4,1-7.5,4.5-8.7c4.3-1.6,9.8,1,10.8,5.6
							C730.7,334.7,734.2,333.7,733.7,331.5L733.7,331.5z"/>
					</g>
				</g>
				<g>
					<g>
						<path class="st5" d="M733.6,342.6c-2.3-5.2-8-7.8-12.6-10.4c-0.8-0.5-2-0.2-2.5,0.6c-0.5,0.8-0.2,2,0.6,2.5
							c2.3,1.3,4.7,2.5,6.8,4.1c0.2,0.2,0.5,0.3,0.7,0.5c-0.2-0.2,0.1,0.1,0.2,0.2c0.1,0.1,0.3,0.2,0.4,0.3c0.5,0.4,0.9,0.8,1.4,1.3
							c0.2,0.2,0.4,0.4,0.6,0.6c0.3,0.4-0.2-0.3,0.1,0.2c0.1,0.1,0.2,0.2,0.2,0.3c0.4,0.5,0.7,1.1,0.9,1.7c0.4,0.9,1.7,1.1,2.5,0.6
							C733.9,344.5,734,343.5,733.6,342.6L733.6,342.6z"/>
					</g>
				</g>
				<g>
					<g>
						<path class="st5" d="M726.6,339.1c0.5,3.8,0.4,7.5,0.4,11.3c0,0.9,0.8,1.8,1.8,1.8c1,0,1.8-0.8,1.8-1.8c0-3.8,0-7.6-0.4-11.3
							c-0.1-0.9-0.7-1.8-1.8-1.8C727.5,337.4,726.4,338.1,726.6,339.1L726.6,339.1z"/>
					</g>
				</g>
			</g>
			<g>
				<path class="st6" d="M849.5,277.5c-8-15.2-31.9-17.5-52.2-15.1c-20.3-2.4-44.2-0.1-52.2,15.1c-13.2,25.1-16,54.4-9.3,80.7
					c3.8,14.7,5.7,25.8,18.8,35.7c7,5.3,14.7,9.8,23,12.9c5.8,2.2,12.4,5.6,18.7,5.8c0.1,0,0.1,0,0.2,0v0c0.3,0,0.5,0,0.8,0
					c0.3,0,0.5,0,0.8,0v0c0.1,0,0.1,0,0.2,0c6.4-0.2,12.9-3.6,18.7-5.8c8.4-3.1,16-7.7,23-12.9c13.2-10,15-21.1,18.8-35.7
					C865.5,332,862.7,302.6,849.5,277.5z"/>
				<g>
					<path class="st5" d="M851,276.6c-3.8-7.2-11-11.6-18.6-13.9c-8.6-2.7-17.9-3.2-26.9-2.8c-2.3,0.1-4.6,0.3-7,0.5
						c-2.2,0.2-4.5-0.2-6.7-0.4c-4.7-0.3-9.3-0.4-14-0.1c-8.5,0.5-17.5,2.2-24.8,6.8c-3.3,2-6.2,4.7-8.3,7.9
						c-2.8,4.2-4.7,9.2-6.6,13.9c-3.9,10.2-6.3,21-7.3,31.9c-0.9,10.7-0.3,21.5,1.7,32c0.9,4.8,2.2,9.5,3.4,14.1
						c1.1,4.1,2.3,8.2,4,12.1c1.7,3.9,4,7.5,6.8,10.7c3.4,3.8,7.6,6.9,11.8,9.8c4.6,3.1,9.4,5.8,14.5,8c2.5,1.1,5.1,2,7.7,3.1
						c2.5,1,5.1,2.1,7.7,2.9c2.5,0.8,5.2,1.4,7.9,1.4c-0.6-0.6-1.2-1.2-1.8-1.8c0,0,0,0,0,0c0,1,0.8,1.8,1.8,1.8c0.5,0,1,0,1.6,0
						c1,0,1.8-0.8,1.8-1.8c0,0,0,0,0,0c-0.6,0.6-1.2,1.2-1.8,1.8c6.1-0.1,11.9-2.9,17.4-5.1c5.7-2.3,11.2-4.6,16.5-7.8
						c9.1-5.5,17.6-12.2,22.1-22.1c2-4.2,3.3-8.7,4.5-13.2c1.4-5.2,2.8-10.5,3.7-15.8c2.1-11.6,2.4-23.5,0.9-35.2
						C861.4,301.8,857.4,288.7,851,276.6c-1.1-2.1-4.2-0.2-3.1,1.8c10.7,20.4,14.7,44,11.6,66.8c-0.7,5.4-2,10.7-3.3,16
						c-1.1,4.5-2.2,9-3.9,13.3c-1.5,4-3.5,7.9-6.3,11.2c-3.4,4.1-7.6,7.3-12,10.3c-5.5,3.7-11.4,6.8-17.6,9.2
						c-5.9,2.2-12,5.7-18.4,5.7c-1,0-1.8,0.8-1.8,1.8c0,0,0,0,0,0c0.6-0.6,1.2-1.2,1.8-1.8c-0.5,0-1,0-1.6,0
						c0.6,0.6,1.2,1.2,1.8,1.8c0,0,0,0,0,0c0-1-0.8-1.8-1.8-1.8c-5.2-0.1-10.3-2.5-15.1-4.4c-5-2-9.9-3.9-14.6-6.6
						c-8.1-4.6-16.3-10.1-21.2-18.2c-4.3-7.1-6-15.3-8-23.2c-2.5-9.8-3.8-19.8-3.6-30c0.1-10.4,1.7-20.8,4.7-30.8
						c1.5-5,3.3-9.9,5.5-14.6c1.7-3.7,3.5-7.4,6.5-10.2c5.7-5.4,13.8-7.7,21.3-8.7c4.3-0.6,8.7-0.8,13-0.7c2.2,0,4.4,0.1,6.6,0.3
						c2.2,0.2,4.4,0.6,6.5,0.4c8.7-0.9,17.6-1.1,26.3,0.4c7.4,1.3,15.1,3.9,20.3,9.7c1.2,1.3,2.1,2.7,3,4.3
						C849,280.5,852.1,278.7,851,276.6z"/>
				</g>
			</g>
			<path class="st6" d="M771.3,312.3c1.4-8.5,3.1-17.1,4-25.5c0.8,9.3,3.9,17,6.8,25.9c-3.2,0-6.4,0.8-9.7,0.6"/>
			<path class="st6" d="M825.4,310.9c-0.6-8.8-1.2-17.8-2.4-26.5c1.2,8.7,8.6,17.1,13,24.4c-3.2,0.7-6.1,2.2-9.3,2.8"/>
			<path class="st6" d="M749.1,306.7c0.8-3.3,2.8-6,3-9.4c0.5,4,1.6,8.1,2.6,12c-2.4,0-5-1.3-6.1-3.4"/>
			<g>
				<g>
					<path class="st5" d="M781.7,375.9c3.5-4.6,10-4.8,15.3-5c5.8-0.1,12.3-0.2,17.7,2.7c-2.9,7.7-11.9,14.1-20.3,13.5
						c-7.9-0.2-8.7-5.4-11.9-11.7"/>
					<g>
						<path class="st5" d="M783,377.1c3.2-4,8.6-4.3,13.4-4.4c5.9-0.2,12.1-0.3,17.5,2.4c-0.3-0.7-0.6-1.4-0.8-2
							c-2.5,6.6-9.7,11.9-16.8,12.2c-3,0.1-6-0.3-8-2.8c-1.9-2.4-2.8-5.4-4.1-8.1c-1-2.1-4.1-0.3-3.1,1.8
							c2.4,4.9,4.1,10.7,10.1,12.1c6.7,1.7,13.7-0.9,18.8-5.2c2.9-2.5,5.3-5.6,6.6-9.2c0.3-0.7-0.2-1.7-0.8-2
							c-6.1-3.1-13-3.1-19.6-2.9c-5.6,0.2-11.9,0.8-15.6,5.5c-0.6,0.8-0.7,1.8,0,2.5C781.1,377.8,782.4,377.9,783,377.1L783,377.1z"
							/>
					</g>
				</g>
				<g>
					<g>
						<path class="st7" d="M804.2,372.3c-2.3-0.4-4.6-0.7-6.9-0.6c-2.3,0.1-4.5,0.5-6.7,1c-0.9,0.2-1.5,1.3-1.3,2.2
							c0.3,1,1.3,1.5,2.2,1.3c3.9-0.9,7.7-1.2,11.7-0.4c1,0.2,1.9-0.3,2.2-1.3C805.7,373.7,805.2,372.5,804.2,372.3L804.2,372.3z"/>
					</g>
				</g>
				<g>
					<path class="st8" d="M807.3,381.2c-0.1,0.4-0.3,1-0.8,1.6c-2.3,2.8-9.4,3.9-12.8,3.4c-1.4-0.2-7-1.9-6.7-3.9
						c0.8-4.4,11.6-4.2,14.9-3.9C804.3,378.6,807.5,379.2,807.3,381.2z"/>
				</g>
			</g>
			<g>
				<path class="st6" d="M815.8,324.7c6.5-7.2,17.6-8.5,26.1-2.6"/>
				<g>
					<path class="st5" d="M817.1,326c6.3-6.8,16.4-7.5,24-2.3c1.9,1.3,3.7-1.8,1.8-3.1c-8.8-6-21-5-28.3,2.9
						C813,325.1,815.5,327.7,817.1,326L817.1,326z"/>
				</g>
			</g>
			<g>
				<path class="st6" d="M777.7,325.1c-6.5-7.2-17.6-8.5-26.1-2.6"/>
				<g>
					<path class="st5" d="M779,323.9c-7.3-7.9-19.5-8.9-28.3-2.9c-1.9,1.3-0.1,4.4,1.8,3.1c7.5-5.1,17.7-4.5,23.9,2.3
						C778,328.1,780.6,325.5,779,323.9L779,323.9z"/>
				</g>
			</g>
			<g>
				<g>
					<path class="st9" d="M845.8,363.5c3-3.2,3.9-7.4,0.5-10.5c-3.4-3.1-9-3.5-13.3-2.9c-8.1,1.3-13.1,6.9-7,13.9
						C831.2,370.3,840.4,369.3,845.8,363.5z"/>
				</g>
				<g>
					<path class="st9" d="M768.4,363.5c3-3.2,3.9-7.4,0.5-10.5c-3.4-3.1-9-3.5-13.3-2.9c-8.1,1.3-13.1,6.9-7,13.9
						C753.9,370.3,763.1,369.3,768.4,363.5z"/>
				</g>
			</g>
			<g>
				<g>
					<g>
						<g>
							<path class="st5" d="M821,339c3.8-7,13.3-3.4,18.7-0.4l0,0c-4.6,4.9-13.3,5.7-19.7,2.3"/>
							<g>
								<path class="st5" d="M822.5,340c1.5-2.8,4.2-3.4,7.2-3.1c3.2,0.4,6.3,1.8,9.1,3.3c-0.1-0.9-0.2-1.9-0.4-2.8
									c-4.4,4.7-12.1,4.9-17.5,2c-2-1.1-3.9,2-1.8,3.1c6.8,3.6,16.3,3.3,21.9-2.6c0.8-0.8,0.7-2.3-0.4-2.8
									c-6.3-3.5-16.7-7-21.2,1.1C818.3,340.2,821.4,342,822.5,340L822.5,340z"/>
							</g>
						</g>
					</g>
				</g>
				<g>
					<g>
						<path class="st5" d="M835.2,336.7c-0.4,0-0.6,0.1-1,0.3c-0.3,0.2-0.5,0.4-0.7,0.7c-0.2,0.4-0.3,0.7-0.3,1.1c0,0.2,0,0.4,0,0.6
							c0-0.2,0-0.3,0.1-0.5c0,0,0,0,0,0.1c0.1-0.1,0.1-0.3,0.2-0.4c0,0,0,0,0,0c0.1-0.1,0.2-0.2,0.3-0.4c0,0,0,0,0,0
							c0.1-0.1,0.2-0.2,0.4-0.3c0,0,0,0,0,0c0.1-0.1,0.3-0.1,0.4-0.2c0,0,0,0,0,0c0.2,0,0.3,0,0.5-0.1c0,0,0,0,0,0
							c0.2,0,0.3,0,0.5,0.1c0,0,0,0,0,0c0.1,0.1,0.3,0.1,0.4,0.2c0,0,0,0,0,0c0.1,0.1,0.2,0.2,0.4,0.3c0,0,0,0,0,0
							c0.1,0.7,0.2,1.5,0.3,2.2c0-0.1,0.1-0.2,0.2-0.3c-0.1,0.1-0.2,0.2-0.3,0.4c0.2-0.2,0.4-0.4,0.6-0.6c-0.1,0.1-0.2,0.2-0.4,0.3
							c0.2-0.2,0.5-0.4,0.7-0.6c-0.9-0.7-1.9-1.5-2.8-2.2c-0.2,0.3-0.3,0.5-0.4,0.8c-0.1,0.3-0.2,0.5-0.3,0.8
							c-0.1,0.5-0.1,1.1-0.1,1.6c0,0.6,0.3,1.2,0.9,1.6c0.3,0.2,0.6,0.2,0.9,0.2c0.3,0,0.6-0.1,0.9-0.2c0.5-0.3,0.9-0.6,1.5-0.9
							c0.2-0.1,0.4-0.3,0.5-0.5c0.2-0.2,0.3-0.4,0.3-0.6c0.1-0.2,0.1-0.5,0-0.7c0-0.2-0.1-0.5-0.2-0.7c-0.2-0.4-0.6-0.7-1.1-0.8
							c-0.2,0-0.3,0-0.5-0.1c-0.3,0-0.6,0.1-0.9,0.2c-0.5,0.3-0.9,0.6-1.5,0.9c0.9,0.5,1.8,1,2.7,1.6c0-0.3,0-0.6,0-1
							c0,0.2,0,0.3-0.1,0.5c0-0.3,0.1-0.5,0.2-0.7c-0.1,0.1-0.1,0.3-0.2,0.4c0.1-0.2,0.2-0.4,0.3-0.6c0.1-0.2,0.2-0.4,0.2-0.7
							c0.1-0.2,0-0.5,0-0.7c-0.1-0.1-0.1-0.3-0.2-0.4c-0.1-0.2-0.3-0.4-0.5-0.5c-0.1-0.1-0.2-0.2-0.4-0.2c-0.2-0.1-0.4-0.2-0.7-0.2
							c-0.5,0-0.9,0.2-1.3,0.5c-0.1,0.1-0.2,0.2-0.3,0.2c0.1-0.1,0.2-0.2,0.4-0.3c-0.3,0.2-0.6,0.4-0.8,0.7
							c-0.1,0.1-0.2,0.2-0.2,0.3c-0.2,0.2-0.3,0.4-0.5,0.6c-0.1,0.1-0.1,0.3-0.2,0.4c-0.1,0.2-0.1,0.5,0,0.7c0,0.2,0,0.3,0.1,0.5
							c0.1,0.2,0.2,0.4,0.4,0.6c0.3,0.2,0.5,0.4,0.9,0.5c0.3,0.1,0.5,0.1,0.7,0c-0.1,0,0.2,0,0.2,0c0,0,0.4-0.2,0.4-0.2
							c0,0,0.4-0.3,0.4-0.3c0.1-0.1,0.1-0.1,0.1-0.2c0.2-0.2,0.1-0.1,0.2-0.4c0-0.1,0.1-0.2,0.1-0.2c0-0.2,0.1-0.4,0.1-0.5
							c0-0.2,0-0.4,0-0.6c0,0.2,0,0.3-0.1,0.5c0,0,0-0.1,0-0.1c-0.1,0.1-0.1,0.3-0.2,0.4c0,0,0,0,0,0c-0.1,0.1-0.2,0.2-0.3,0.4
							c0,0,0,0,0,0c-0.1,0.1-0.2,0.2-0.4,0.3c0,0,0,0,0,0c-0.1,0.1-0.3,0.1-0.4,0.2c0,0,0,0,0,0c-0.2,0-0.3,0-0.5,0.1c0,0,0,0,0,0
							c0.5,0,0.9-0.2,1.3-0.5c0.2-0.2,0.3-0.4,0.4-0.6c0.1-0.2,0.2-0.4,0.2-0.7c0-0.5-0.2-0.9-0.5-1.3
							C836.2,336.9,835.7,336.7,835.2,336.7L835.2,336.7z"/>
					</g>
				</g>
			</g>
			<g>
				<g>
					<g>
						<g>
							<path class="st5" d="M772.6,339c-3.8-7-13.3-3.4-18.7-0.4l0,0c4.6,4.9,13.3,5.7,19.7,2.3"/>
							<g>
								<path class="st5" d="M774.2,338.1c-4.5-8-14.8-4.5-21.2-1.1c-1,0.6-1.1,2-0.4,2.8c5.6,5.8,15.1,6.1,21.9,2.6
									c2.1-1.1,0.2-4.2-1.8-3.1c-5.4,2.8-13.1,2.6-17.5-2c-0.1,0.9-0.2,1.9-0.4,2.8c2.8-1.5,5.9-2.9,9.1-3.3
									c3-0.4,5.6,0.3,7.2,3.1C772.2,342,775.3,340.2,774.2,338.1L774.2,338.1z"/>
							</g>
						</g>
					</g>
					<g>
						<g>
							<path class="st5" d="M759.7,336.5c-0.1,0.2-0.3,0.5-0.3,0.8c-0.1,0.5-0.1,0.8,0,1.3c0.1,0.6,0.5,1.1,0.8,1.5
								c0.1,0.1,0.2,0.3,0.4,0.4c0.3,0.2,0.5,0.4,0.8,0.6c0.5,0.3,1.1,0.5,1.6,0.7c0.2,0.1,0.5,0.1,0.7,0c0.2,0,0.5-0.1,0.7-0.2
								c0.4-0.2,0.7-0.6,0.8-1.1c0.1-0.5,0.1-1-0.2-1.4c-0.1-0.1-0.2-0.2-0.3-0.4c-0.2-0.2-0.5-0.4-0.8-0.5
								c-0.2-0.1-0.3-0.1-0.5-0.2c0.1,0.1,0.3,0.1,0.4,0.2c-0.4-0.2-0.8-0.4-1.1-0.6c0.1,0.1,0.2,0.2,0.4,0.3
								c-0.2-0.1-0.3-0.3-0.5-0.5c0.1,0.1,0.2,0.2,0.3,0.4c-0.1-0.1-0.2-0.2-0.2-0.4c0.1,0.1,0.1,0.3,0.2,0.4c0-0.1-0.1-0.2-0.1-0.3
								c0,0.2,0,0.3,0.1,0.5c0-0.1,0-0.2,0-0.3c0,0.2,0,0.3-0.1,0.5c0-0.1,0-0.2,0.1-0.3c-0.1,0.1-0.1,0.3-0.2,0.4
								c0-0.1,0.1-0.1,0.1-0.2c0.2-0.4,0.3-0.9,0.2-1.4c-0.1-0.4-0.4-0.9-0.8-1.1c-0.4-0.2-0.9-0.3-1.4-0.2
								C760.3,335.8,759.9,336,759.7,336.5L759.7,336.5z"/>
						</g>
					</g>
				</g>
				<g>
					<g>
						<path class="st5" d="M758.3,340.3C758.3,340.3,758.4,340.3,758.3,340.3c-0.1,0-0.3,0-0.5-0.1c0,0,0,0,0,0
							c-0.1-0.1-0.3-0.1-0.4-0.2c0,0,0,0,0,0c-0.1-0.1-0.2-0.2-0.4-0.3c0,0,0,0,0,0c-0.1-0.1-0.2-0.2-0.3-0.4c0,0,0,0,0,0
							c-0.1-0.1-0.1-0.3-0.2-0.4c0,0,0,0.1,0,0.1c0-0.2,0-0.3-0.1-0.5c0,0.2,0,0.4,0,0.6c0,0.2,0,0.4,0.1,0.6c0,0,0.2,0.4,0.2,0.4
							c0,0,0,0,0,0c0,0,0.3,0.3,0.3,0.4c0,0,0.3,0.3,0.4,0.3c0.1,0,0.4,0.2,0.4,0.2c0.2,0,0.3,0,0.5,0.1c0.1,0,0.2,0,0.2,0
							c0,0,0.2,0,0.3,0c0,0,0.4-0.2,0.4-0.2c0,0,0,0,0,0c0,0,0.3-0.3,0.4-0.3c0,0,0,0,0,0c0.1-0.1,0.2-0.2,0.3-0.4
							c0.1-0.2,0.2-0.4,0.2-0.7c0-0.2,0-0.3,0-0.5c0-0.2-0.1-0.5-0.2-0.7c-0.1-0.2-0.3-0.4-0.5-0.6c-0.1-0.1-0.2-0.2-0.2-0.3
							c-0.3-0.2-0.6-0.5-0.8-0.7c0.1,0.1,0.2,0.2,0.4,0.3c-0.1-0.1-0.2-0.2-0.3-0.2c-0.2-0.2-0.4-0.3-0.6-0.4
							c-0.2-0.1-0.4-0.2-0.7-0.2c-0.2,0-0.3,0-0.5,0.1c-0.2,0.1-0.4,0.2-0.6,0.3c-0.1,0.1-0.2,0.2-0.3,0.3c-0.2,0.2-0.3,0.4-0.3,0.6
							c-0.1,0.5-0.1,1,0.2,1.4c0.1,0.2,0.3,0.4,0.4,0.6c-0.1-0.1-0.1-0.3-0.2-0.4c0.1,0.2,0.2,0.5,0.2,0.7c0-0.2,0-0.3-0.1-0.5
							c0,0.3,0,0.6,0,1c0.9-0.5,1.8-1,2.7-1.6c-0.5-0.3-0.9-0.6-1.5-0.9c-0.2-0.1-0.4-0.2-0.7-0.2c-0.2-0.1-0.5,0-0.7,0
							c-0.2,0.1-0.4,0.2-0.6,0.3c-0.2,0.1-0.4,0.3-0.5,0.5c-0.2,0.4-0.3,0.9-0.2,1.4c0.1,0.4,0.4,0.9,0.8,1.1
							c0.5,0.3,0.9,0.6,1.5,0.9c0.3,0.2,0.6,0.2,0.9,0.2c0.3,0,0.6-0.1,0.9-0.2c0.5-0.3,0.9-0.9,0.9-1.6c0-0.6,0-1.1-0.1-1.6
							c-0.1-0.3-0.2-0.6-0.3-0.9c-0.1-0.2-0.2-0.4-0.4-0.6c-0.9,0.7-1.9,1.5-2.8,2.2c0.2,0.2,0.5,0.4,0.8,0.6
							c-0.1-0.1-0.2-0.2-0.4-0.3c0.2,0.2,0.4,0.3,0.6,0.6c-0.1-0.1-0.2-0.2-0.3-0.4c0.1,0.1,0.1,0.2,0.2,0.3
							c0.1-0.7,0.2-1.5,0.3-2.2c0,0,0,0,0,0c0.1-0.1,0.2-0.2,0.4-0.3c0,0,0,0,0,0c0.1-0.1,0.3-0.1,0.4-0.2c0,0,0,0,0,0
							c0.2,0,0.3,0,0.5-0.1c0,0,0,0,0,0c0.2,0,0.3,0,0.5,0.1c0,0,0,0,0,0c0.1,0.1,0.3,0.1,0.4,0.2c0,0,0,0,0,0
							c0.1,0.1,0.2,0.2,0.4,0.3c0,0,0,0,0,0c0.1,0.1,0.2,0.2,0.3,0.4c0,0,0,0,0,0c0.1,0.1,0.1,0.3,0.2,0.4c0,0,0,0,0-0.1
							c0,0.2,0,0.3,0.1,0.5c0-0.2,0-0.4,0-0.6c0-0.4-0.1-0.7-0.3-1.1c-0.2-0.3-0.4-0.5-0.7-0.7c-0.3-0.2-0.6-0.2-1-0.3
							c-0.2,0-0.5,0-0.7,0.2c-0.2,0.1-0.4,0.2-0.6,0.4c-0.2,0.2-0.3,0.4-0.4,0.6c-0.1,0.2-0.2,0.4-0.2,0.7c0,0.5,0.2,0.9,0.5,1.3
							c0.1,0.1,0.2,0.2,0.4,0.3C757.7,340.2,758,340.3,758.3,340.3L758.3,340.3z"/>
					</g>
				</g>
			</g>
			<g>
				<path class="st6" d="M793.4,394.5c2.2,0.9,4.8,0.4,7-0.9"/>
				<g>
					<path class="st5" d="M792.9,396.3c2.7,1.1,5.9,0.4,8.4-1.1c0.8-0.5,1.2-1.6,0.6-2.5c-0.5-0.8-1.6-1.2-2.5-0.6
						c-0.3,0.2-0.6,0.3-0.8,0.5c-0.1,0-0.1,0.1-0.2,0.1c0.2-0.1,0.3-0.1,0.2-0.1c-0.1,0.1-0.3,0.1-0.4,0.1c-0.3,0.1-0.6,0.2-0.9,0.3
						c-0.2,0.1-0.6,0.1-0.8,0.2c0.3,0,0.3,0,0.1,0c-0.1,0-0.2,0-0.2,0c-0.1,0-0.2,0-0.3,0c-0.3,0-0.6,0-0.9,0c-0.4,0,0.4,0.1,0,0
						c-0.1,0-0.3-0.1-0.4-0.1c-0.3-0.1-0.6-0.2-0.8-0.3c-0.4-0.2-1,0-1.4,0.2c-0.4,0.2-0.7,0.6-0.8,1.1
						C791.5,395.1,792,395.9,792.9,396.3L792.9,396.3z"/>
				</g>
			</g>
			<g>
				<g>
					<g>
						<path class="st10" d="M750.9,268.2c-1,1.9-1.6,4-1.7,6.1c0,0.9,0.8,1.8,1.8,1.8c1,0,1.8-0.8,1.8-1.8c0-0.4,0-0.7,0.1-1.1
							c0,0.2,0,0.3-0.1,0.5c0.2-1.1,0.5-2.1,0.9-3.2c-0.1,0.1-0.1,0.3-0.2,0.4c0.1-0.3,0.3-0.7,0.5-1c0.4-0.8,0.2-2-0.6-2.5
							C752.5,267.1,751.4,267.3,750.9,268.2L750.9,268.2z"/>
					</g>
				</g>
			</g>
			<path class="st7" d="M845.1,355.7c0,1.1-1.4,2.1-3.1,2.1c-1.7,0-3.1-0.9-3.1-2.1c0-1.1,1.4-2.1,3.1-2.1
				C843.7,353.6,845.1,354.6,845.1,355.7z"/>
			<path class="st7" d="M754.5,356c0,1.1-1.4,2.1-3.1,2.1c-1.7,0-3.1-0.9-3.1-2.1c0-1.1,1.4-2.1,3.1-2.1
				C753.1,353.9,754.5,354.9,754.5,356z"/>
			<g>
				<g>
					<path class="st5" d="M792.1,354.3c3.1,3.6,8.8,2.6,11.9-0.4c0.7-0.7,0.7-1.9,0-2.5c-0.7-0.7-1.8-0.7-2.5,0
						c-0.2,0.2-0.3,0.3-0.5,0.5c-0.2,0.2,0.2-0.1,0,0c-0.1,0.1-0.2,0.1-0.3,0.2c-0.3,0.2-0.7,0.4-1.1,0.6c0,0-0.1,0-0.1,0.1
						c-0.1,0.1-0.1,0,0.1-0.1c0,0-0.2,0.1-0.2,0.1c-0.2,0.1-0.4,0.1-0.6,0.2c-0.2,0.1-0.4,0.1-0.6,0.1c-0.3,0.1,0.3,0,0,0
						c-0.1,0-0.2,0-0.3,0c-0.2,0-0.4,0-0.6,0c-0.1,0-0.2,0-0.3,0c0,0-0.1,0-0.1,0c-0.2,0-0.2,0,0,0c0.1,0,0.2,0,0.1,0
						c-0.1,0-0.1,0-0.2,0c-0.1,0-0.2,0-0.3-0.1c-0.2,0-0.3-0.1-0.5-0.2c-0.1,0-0.1,0-0.2-0.1c-0.1,0-0.1,0,0.1,0
						c0.1,0.1,0.1,0.1,0,0c0,0-0.1,0-0.1-0.1c-0.2-0.1-0.3-0.2-0.5-0.3c-0.2-0.1,0,0.1,0.1,0.1c-0.1,0-0.2-0.2-0.2-0.2
						c-0.2-0.2-0.3-0.3-0.5-0.5c-0.6-0.7-1.9-0.7-2.5,0C791.4,352.5,791.5,353.5,792.1,354.3L792.1,354.3z"/>
				</g>
			</g>
			<g>
				<g>
					<path class="st5" d="M796,331.6c0,3.6,0,7.1,0,10.7c0,0.9,0.8,1.8,1.8,1.8c1,0,1.8-0.8,1.8-1.8c0-3.6,0-7.1,0-10.7
						c0-0.9-0.8-1.8-1.8-1.8C796.9,329.9,796,330.6,796,331.6L796,331.6z"/>
				</g>
			</g>
		</g>
		<g>
			<path class="st11" d="M768.8,229.7c-1.7-8.5-4.5-25.5,8.5-25.5c13,0.6,19.8,19.3,24.9,28.9"/>
			<g>
				<path class="st5" d="M770.5,229.2c-0.8-4-1.5-8-1.4-12c0-3.4,0.5-7.8,3.4-9.9c3.4-2.5,8.2-1.2,11.4,0.9c4.1,2.7,7,7,9.4,11.2
					c2.7,4.7,4.9,9.7,7.4,14.5c1.1,2,4.2,0.2,3.1-1.8c-4.9-9.3-8.7-20.4-17.6-26.7c-4.1-2.9-9.8-4.2-14.5-1.8
					c-4.2,2.1-5.6,6.9-6,11.2c-0.4,5.1,0.5,10.3,1.5,15.3C767.5,232.4,771,231.5,770.5,229.2L770.5,229.2z"/>
			</g>
		</g>
		<g>
			<path class="st11" d="M831.9,229.7c1.7-8.5,4.5-25.5-8.5-25.5c-13,0.6-19.8,19.3-24.9,28.9"/>
			<g>
				<path class="st5" d="M833.6,230.2c0.9-4.4,1.7-9,1.6-13.5c-0.1-4.4-1.1-9.4-4.8-12.2c-4.1-3.1-9.9-2.4-14.2,0
					c-4.8,2.6-8.3,7.3-11.1,11.9c-3.1,5.1-5.4,10.6-8.2,15.9c-1.1,2,2,3.9,3.1,1.8c2.2-4.2,4.2-8.6,6.5-12.8c2.4-4.4,5.2-8.8,9.1-12
					c3.1-2.5,7.6-4.2,11.5-2.5c3.4,1.5,4.3,5.5,4.5,9c0.3,4.6-0.5,9.1-1.4,13.6C829.7,231.5,833.2,232.4,833.6,230.2L833.6,230.2z"
					/>
			</g>
		</g>
		<path class="st12" d="M863.3,244.6c-7.1-8.8-16.7-15.3-28.5-17.4c-17-3.1-33.6,2.9-50.8-0.5c-15.1-3-30.3,6.3-41.5,15.8
			c-10.8,9-18,21.2-21.3,34.8c-1.7,7.1-2.5,14.5-2.2,21.8c0.4,7.6,1.4,15.3,2,22.8c0-0.3,9.4,3.8,10.2,3.5c3.1-1.1,3-7.3,3.6-9.9
			c2.1-8.6,6-14.4,13.8-18.9c5.1,9.9,19.7,13.8,30,14.7c-2.6-4.5-2.8-10.8-1.4-15.8c9.4,6.2,19.6,9.4,30.5,12.4
			c-2.5-4.4-6-11.5-1.1-15.6c6.5,9,19.3,15.6,30.4,16.2c-3.1-0.2-4.5-10-4.2-12c5.6,6.5,15.5,5.8,21.6,11.7
			c5.6,5.5,7.2,12.9,7.2,20.6c0-7.3,8.5-9.5,14.2-9.4c-0.4,0,2.5-26.9,2.5-29.3C878.1,273.9,873.4,257,863.3,244.6z"/>
		<g>
			<g>
				<g>
					<path class="st10" d="M746.5,259.5c-5.1,3.9-9.7,9.4-10,16.1c-0.1,2.3,3.5,2.3,3.6,0c0.2-5.3,4.2-9.9,8.2-13
						c0.8-0.6,1.2-1.5,0.6-2.5C748.6,259.4,747.3,258.9,746.5,259.5L746.5,259.5z"/>
				</g>
			</g>
			<g>
				<g>
					<path class="st10" d="M775.7,263.9c-2.5,2.4-4.9,4.8-6.4,8.1c-0.7,1.5,0.8,3.5,2.5,2.5c5-3,9.9-6.2,15.3-8.8
						c-0.7-0.9-1.5-1.9-2.2-2.8c-2.2,2.8-4.5,5.5-6.7,8.3c-1.4,1.8,0.8,4.2,2.5,2.5c2.8-2.6,5.9-5,8.7-7.6c-1-0.4-2-0.8-3.1-1.3
						c0,1.7-0.1,3.5-0.1,5.2c0,1.3,1.6,2.3,2.7,1.6c1.7-1.1,2.8-2.2,4-3.8c-0.9,0.1-1.9,0.2-2.8,0.4c1.4,1.4,3.1,2.1,4.9,3
						c1.1,0.6,2.8-0.1,2.7-1.6c0-0.4-0.1-0.8-0.2-1.2c0-0.2-0.1-0.3-0.1-0.5c0-0.2,0-0.2,0.1-0.1c-0.7,0.3-1.4,0.6-2,0.8
						c0.9,0.2,1.7,0.5,2.6,0.7c1.1,0.3,2.2-0.6,2.3-1.7c0-0.7,0-1.3,0-2c-0.6,0.6-1.2,1.2-1.8,1.8c0.3,0,1.5,0.5,2,0.9
						c1.2,1.1,3,0.3,3.1-1.3c0-0.9,0-1.7,0.1-2.6c-1,0.4-2,0.8-3.1,1.3c1.4,1.5,2.4,3.2,3.8,4.7c1.1,1.2,3,0.2,3.1-1.3
						c0-1.1,0.1-2.2,0.1-3.3c-0.8,0.6-1.5,1.2-2.3,1.7c3.2,0.8,6.3,2.3,8.9,4.4c0.7,0.6,1.6,0.7,2.4,0.1c0.7-0.5,0.9-1.6,0.5-2.3
						c-1.4-2.2-2.9-4.4-4.7-6.4c-0.8,0.8-1.7,1.7-2.5,2.5c2.5,2.7,5.1,5.4,7.6,8c1.6,1.7,4.1-0.9,2.5-2.5c-2.5-2.7-5.1-5.4-7.6-8
						c-1.6-1.7-4.1,0.8-2.5,2.5c1.6,1.7,2.9,3.7,4.1,5.6c0.9-0.7,1.9-1.5,2.8-2.2c-3.1-2.4-6.6-4.4-10.5-5.3
						c-1.2-0.3-2.2,0.5-2.3,1.7c0,1.1-0.1,2.2-0.1,3.3c1-0.4,2-0.8,3.1-1.3c-1.4-1.5-2.4-3.2-3.8-4.7c-1.1-1.2-3-0.2-3.1,1.3
						c0,0.9,0,1.7-0.1,2.6c1-0.4,2-0.8,3.1-1.3c-1.2-1.1-2.9-1.8-4.5-1.9c-1-0.1-1.8,0.9-1.8,1.8c0,0.7,0,1.3,0,2
						c0.8-0.6,1.5-1.2,2.3-1.7c-0.9-0.2-1.7-0.5-2.6-0.7c-0.8-0.2-1.5,0.2-2,0.8c-0.9,1.1-0.4,2.3-0.3,3.5c0.9-0.5,1.8-1,2.7-1.6
						c-1.4-0.7-3-1.3-4.1-2.4c-0.9-0.9-2.2-0.6-2.8,0.4c-0.8,1.2-1.5,1.8-2.7,2.5c0.9,0.5,1.8,1,2.7,1.6c0-1.7,0.1-3.5,0.1-5.2
						c0-1.6-2-2.3-3.1-1.3c-2.8,2.6-5.9,5-8.7,7.6c0.8,0.8,1.7,1.7,2.5,2.5c2.2-2.8,4.5-5.5,6.7-8.3c1.3-1.6-0.3-3.7-2.2-2.8
						c-5.3,2.5-10.2,5.8-15.3,8.8c0.8,0.8,1.6,1.6,2.5,2.5c1.3-3,3.5-5.1,5.8-7.3C779.9,264.8,777.4,262.3,775.7,263.9L775.7,263.9z
						"/>
				</g>
			</g>
			<g>
				<g>
					<path class="st10" d="M832.2,263.1c0.3,1.7,0.8,3.4,1.8,5c1,1.7,2.5,3,4.1,4.1c1.3,0.9,3-0.6,2.6-2c-0.6-2.1,0.1-4.4-0.5-6.5
						c-1,0.6-2,1.2-3,1.7c1.7,1.8,4,2.9,5.8,4.7c0.6,0.6,1.7,0.7,2.4,0.1c0.7-0.6,0.8-1.5,0.5-2.3c-0.7-1.6-1.4-3.5-2.8-5
						c-0.8,0.8-1.7,1.7-2.5,2.5c2.4,1.9,4.9,3.8,6.7,6.3c0.6,0.8,1.6,1.2,2.5,0.6c0.8-0.5,1.2-1.7,0.6-2.5c-2-2.8-4.6-5-7.3-7.1
						c-0.8-0.6-1.8-0.7-2.5,0c-0.7,0.7-0.7,1.8,0,2.5c1.1,1.2,1.5,2.8,2.2,4.3c0.9-0.7,1.9-1.5,2.8-2.2c-1.7-1.8-4-2.9-5.8-4.7
						c-1.3-1.3-3.5,0-3,1.7c0.6,2.1-0.1,4.4,0.5,6.5c0.9-0.7,1.8-1.4,2.6-2c-2.6-1.7-3.7-3.9-4.2-6.9c-0.2-1-1.3-1.5-2.2-1.3
						C832.4,261.2,832,262.2,832.2,263.1L832.2,263.1z"/>
				</g>
			</g>
			<g>
				<g>
					<path class="st10" d="M754.4,267.6c-1,1.9-1.6,4-1.7,6.1c0,0.9,0.8,1.8,1.8,1.8c1,0,1.8-0.8,1.8-1.8c0-0.4,0-0.7,0.1-1.1
						c0,0.2,0,0.3-0.1,0.5c0.2-1.1,0.5-2.1,0.9-3.2c-0.1,0.1-0.1,0.3-0.2,0.4c0.1-0.3,0.3-0.7,0.5-1c0.4-0.8,0.2-2-0.6-2.5
						C756.1,266.5,754.9,266.7,754.4,267.6L754.4,267.6z"/>
				</g>
			</g>
			<g>
				<g>
					<path class="st10" d="M853,259.2c4.3,3.9,8.5,8.2,10.3,13.9c0.7,2.2,4.2,1.3,3.5-1c-1.9-6.2-6.4-11.1-11.2-15.4
						c-0.7-0.7-1.8-0.7-2.5,0C852.3,257.3,852.3,258.6,853,259.2L853,259.2z"/>
				</g>
			</g>
		</g>
	</g>
	<g>
		<path class="st13" d="M833.7,449.3l3.5-13.4c0,0,0.6-3.7,4.2-4.7l25.3-8.8c0,0,5.1-1.6,9.7-0.3c0,0,13.5,2.7,16,7.1l3,5
			c0,0,3.3,5.9-1.7,7.5c0,0,1.9,3.5-0.6,8.5c0,0-2.1,4.5-8.1,3.5c0,0-2.5-1.2-6.5-1c0,0,5.1,1.9,4.7,5.6c0,0,1.6,4.8-5,9.4
			c0,0,5.8,7.1-1.7,12.1l-14.6,6c0,0-0.7,4.4-11,5.2c0,0-7.5-1.5-10.6-4.1c-3.1-2.6-1.3-0.2-1.3-0.2l-25.8,13.8c0,0-20-17.4-7-37.1
			L833.7,449.3z"/>
		<path class="st14" d="M833.8,448.1c-0.9,3.5-0.6,6.9-0.5,10.4"/>
		<path class="st14" d="M865.6,471.4c4.1-1.1,9.5-1.9,13.1-4.1"/>
		<path class="st14" d="M862.4,485.5c-1.7,0-3.4,0.7-5.2,0.7"/>
		<path class="st14" d="M863.4,455c4.5-0.2,12.8-4.2,16.6-2"/>
		<path class="st14" d="M856.6,439.5c6.9-1.6,16.4-5.8,23.7-4.8c4.6,0.7,11,4,13.9,7.7"/>
		<path class="st14" d="M845.2,442.3c0.1,1.6,0.2,3.4,1.2,4.8"/>
		<path class="st14" d="M850.4,461c0.1,0.8,0.6,1.6,1.2,2.1"/>
		<path class="st14" d="M856.6,473.3c-0.1,1,0.3,1.8,1.2,2.1"/>
	</g>
	<g>
		<g>
			<path class="st4" d="M762.3,461.2c-7.9,10-15.8,19.6-23.1,30.1c10.4-4.2,20.2-9.5,30.3-14.3c15.4-7.3,31.3-13.6,47.1-20.5
				c5.3,14.5,9.1,30.7,16.6,44.3c3,5.5-60.3,43.6-67.2,46.9c-24.4,11.9-59.6,20.2-82-0.2c-32.3-29.3-16.1-72.4,10.1-99.6
				c10.7-11.1,19.7-24.5,32.5-33.4c11.6-8,25.5-11.9,39.3-13.3"/>
			<g>
				<path class="st5" d="M761.1,459.9c-7.9,10.1-16.1,20-23.4,30.5c-0.8,1.2,0.6,3.2,2,2.6c10.2-4.2,19.9-9.3,29.9-14
					c10-4.8,20.3-9.2,30.5-13.5c5.8-2.5,11.6-4.9,17.4-7.5c-0.9-0.4-1.7-0.7-2.6-1.1c3.2,8.9,5.8,18,9,26.9
					c1.6,4.5,3.3,8.9,5.4,13.1c0.5,1,1,2,1.5,2.9c0.3,0.5,0.5,1.1,0.8,1.5c0.4,0.6-0.1-0.3,0,0c0.1,0.2,0-0.6,0-0.2c0,0.3,0,0,0,0
					c0.1,0,0-0.3,0,0c0,0.1-0.1,0.2-0.1,0.3c0.2-0.5,0-0.1-0.1,0.1c-0.1,0.2-0.3,0.4-0.4,0.6c-0.2,0.4,0.1-0.2,0,0
					c-0.1,0.1-0.1,0.2-0.2,0.3c-0.2,0.2-0.4,0.5-0.6,0.7c-1,1.1-2.2,2.1-3.3,3.1c-3.2,2.8-6.5,5.1-10,7.6
					c-8.9,6.3-18.1,12.2-27.4,18c-7.1,4.4-14.3,8.8-21.6,12.9c-3.7,2.1-7.7,3.8-11.6,5.4c-7.2,2.9-14.6,5.1-22.2,6.5
					c-14.7,2.7-30.7,2-43.5-6.5c-12.4-8.2-20.9-22.2-22.3-37c-1.3-14.4,3.3-28.7,10.2-41.2c3.7-6.6,8.1-12.8,13.1-18.5
					c2.7-3.1,5.5-5.9,8.3-9c3-3.3,5.8-6.7,8.8-10.1c5.8-6.7,11.9-13.4,19.2-18.4c7.6-5.3,16.3-8.7,25.3-10.8c4.3-1,8.7-1.7,13.1-2.2
					c1-0.1,1.8-0.7,1.8-1.8c0-0.9-0.8-1.9-1.8-1.8c-9.5,1-18.8,3-27.6,6.7c-8.7,3.6-16.2,8.9-22.9,15.5
					c-6.6,6.5-12.3,13.7-18.4,20.6c-2.7,3.1-5.7,6-8.3,9.1c-2.6,3-5,6.1-7.3,9.3c-8.8,12.4-15.4,26.8-16.8,42.1
					c-0.7,7.3,0,14.7,2.2,21.6c2.3,7.4,6.4,14.2,11.6,20c5.5,6.1,12.1,10.9,19.8,13.8c7.2,2.7,15.1,3.7,22.8,3.5
					c15.8-0.4,31.3-5.3,45.5-12.1c6.2-3,12.1-6.8,18-10.4c9.6-5.8,19.1-11.8,28.3-18.1c4.2-2.8,8.3-5.7,12.3-8.8
					c2.8-2.1,5.7-4.3,8-7c0.8-0.9,1.6-1.8,2-3c0.6-2-0.9-3.8-1.8-5.5c-4.4-8.8-7.3-18.1-10.3-27.4c-1.4-4.5-2.9-8.9-4.5-13.3
					c-0.4-1.2-1.5-1.5-2.6-1.1c-10.1,4.4-20.2,8.6-30.3,13c-10.1,4.4-20,9.1-29.9,14c-5.5,2.7-11.1,5.4-16.8,7.7
					c0.7,0.9,1.3,1.7,2,2.6c7.1-10.3,15.1-20,22.8-29.8c0.6-0.8,0.7-1.8,0-2.5C763,459.3,761.7,459.2,761.1,459.9L761.1,459.9z"/>
			</g>
		</g>
	</g>
	<g>
		<g>
			<path class="st5" d="M741.7,488.8c-9.6,5.5-20.2,9.3-29.2,15.8c-1.8,1.3-0.1,4.4,1.8,3.1c9-6.5,19.6-10.2,29.2-15.8
				C745.5,490.7,743.7,487.7,741.7,488.8L741.7,488.8z"/>
		</g>
	</g>
	<g>
		<g>
			<path class="st13" d="M754.8,447.5l-3.5-13.4c0,0-0.6-3.7-4.2-4.7l-25.3-8.8c0,0-5.1-1.6-9.7-0.3c0,0-13.5,2.7-16,7.1l-3,5
				c0,0-3.3,5.9,1.7,7.5c0,0-1.9,3.5,0.6,8.5c0,0,2.1,4.5,8.1,3.5c0,0,2.5-1.2,6.5-1c0,0-5.1,1.9-4.7,5.6c0,0-1.6,4.8,5,9.4
				c0,0-5.8,7.1,1.7,12.1l14.6,6c0,0,0.7,4.5,11,5.2c0,0,7.5-1.5,10.6-4.1c3.1-2.6,1.3-0.2,1.3-0.2l25.8,13.8c0,0,20-17.4,7-37.1
				L754.8,447.5z"/>
			<path class="st14" d="M754.7,446.3c0.9,3.5,0.6,6.9,0.5,10.4"/>
			<path class="st14" d="M722.9,469.7c-4.1-1.1-9.5-1.9-13.1-4.1"/>
			<path class="st14" d="M726.1,483.7c1.7,0,3.4,0.7,5.2,0.7"/>
			<path class="st14" d="M725.1,453.2c-4.5-0.2-12.8-4.2-16.6-2"/>
			<path class="st14" d="M731.9,437.7c-6.9-1.6-16.4-5.8-23.7-4.8c-4.6,0.7-11,4-13.9,7.7"/>
			<path class="st14" d="M743.3,440.6c-0.1,1.6-0.2,3.4-1.2,4.8"/>
			<path class="st14" d="M738.1,459.3c-0.1,0.8-0.6,1.6-1.2,2.1"/>
			<path class="st14" d="M731.9,471.5c0.1,1-0.3,1.8-1.2,2.1"/>
		</g>
	</g>
	<g>
		<path class="st15" d="M865.2,414.1c-1.6-2.6-4-4-5.8-3.2c-1.9,0.8-2.6,3.5-1.8,6.4L865.2,414.1z"/>
		<path class="st16" d="M854.5,516.4l-34.9-83.2l50.9-21.3c0,0,0.6,22,10,44.5c9.9,23.5,24.8,38.7,24.8,38.7L854.5,516.4z"/>
		<path class="st17" d="M824.8,431.1l-5.2,2.2l34.9,83.2l50.9-21.3c0,0-2.2-2.2-5.4-6.3C852.9,521.3,829.8,449.4,824.8,431.1z"/>
		<path class="st18" d="M855.6,518.8c-1.3,0.6-2.8-0.1-3.4-1.4l-34.9-83.2c-0.6-1.3,0.1-2.8,1.4-3.4l0,0c1.3-0.6,2.8,0.1,3.4,1.4
			l34.9,83.2C857.5,516.8,856.9,518.3,855.6,518.8L855.6,518.8z"/>
		<path class="st18" d="M870.1,412.1l-4,1.7l0.9,9.4c1.2,8.8,3.8,21.7,9.3,34.7c5.3,12.7,12.1,23,17.3,30l7.5,9l3.8-1.6
			c0,0-15-15.1-24.8-38.7C870.7,434.1,870.1,412.1,870.1,412.1z"/>
		<g>
			<g>
				<path class="st19" d="M867.8,413.9C867.8,413.9,867.8,413.8,867.8,413.9l-0.1-0.9c0-0.2,0.1-0.3,0.3-0.3c0.2,0,0.3,0.1,0.3,0.3
					l0.1,0.8c0,0.2-0.1,0.3-0.3,0.3C868,414.1,867.9,414,867.8,413.9z"/>
			</g>
			<g>
				<path class="st19" d="M877.9,457.2l-0.1-0.3c-0.1-0.2,0-0.3,0.2-0.4c0.2-0.1,0.3,0,0.4,0.2l0,0l0.1,0.3c0.2,0.4,0.3,0.8,0.5,1.2
					c0,0.2,0,0.3-0.2,0.4c-0.2,0.1-0.3,0-0.4-0.2C878.3,458,878.1,457.6,877.9,457.2z M877.2,455.4
					C877.2,455.4,877.2,455.4,877.2,455.4c-0.2-0.5-0.4-1-0.6-1.5c-0.1-0.2,0-0.3,0.2-0.4c0.2-0.1,0.3,0,0.4,0.2
					c0.2,0.5,0.4,1,0.6,1.5c0.1,0.2,0,0.3-0.2,0.4C877.4,455.6,877.2,455.5,877.2,455.4z M879.1,459.9c-0.1-0.2,0-0.3,0.2-0.4
					c0.2-0.1,0.3,0,0.4,0.2c0.2,0.5,0.5,1,0.7,1.5c0.1,0.2,0,0.3-0.2,0.4c-0.2,0.1-0.3,0-0.4-0.2
					C879.5,460.9,879.3,460.4,879.1,459.9C879.1,459.9,879.1,459.9,879.1,459.9z M876,452.3C876,452.3,876,452.3,876,452.3
					c-0.2-0.5-0.4-1-0.6-1.6c-0.1-0.2,0-0.3,0.2-0.4c0.2-0.1,0.3,0,0.4,0.2c0.2,0.5,0.4,1,0.6,1.5c0.1,0.2,0,0.3-0.2,0.4
					C876.2,452.5,876.1,452.5,876,452.3z M880.5,462.9c-0.1-0.2,0-0.3,0.2-0.4c0.2-0.1,0.3,0,0.4,0.1c0.2,0.5,0.5,1,0.7,1.5
					c0.1,0.1,0,0.3-0.1,0.4c-0.2,0.1-0.3,0-0.4-0.1C880.9,463.9,880.7,463.4,880.5,462.9C880.5,462.9,880.5,462.9,880.5,462.9z
					 M874.9,449.2C874.9,449.2,874.9,449.2,874.9,449.2c-0.2-0.5-0.4-1.1-0.5-1.6c-0.1-0.2,0-0.3,0.2-0.4c0.2-0.1,0.3,0,0.4,0.2
					c0.2,0.5,0.3,1,0.5,1.6c0.1,0.2,0,0.3-0.2,0.4C875.1,449.4,875,449.4,874.9,449.2z M881.9,465.8c-0.1-0.1,0-0.3,0.1-0.4
					c0.2-0.1,0.3,0,0.4,0.1c0.2,0.5,0.5,1,0.7,1.5c0.1,0.1,0,0.3-0.1,0.4c-0.2,0.1-0.3,0-0.4-0.1
					C882.4,466.8,882.2,466.3,881.9,465.8C881.9,465.8,881.9,465.8,881.9,465.8z M873.9,446.1C873.9,446.1,873.9,446.1,873.9,446.1
					c-0.2-0.6-0.3-1.1-0.5-1.6c0-0.2,0-0.3,0.2-0.4c0.2,0,0.3,0,0.4,0.2c0.2,0.5,0.3,1,0.5,1.6c0,0.2,0,0.3-0.2,0.4
					C874.1,446.3,873.9,446.2,873.9,446.1z M883.4,468.7c-0.1-0.1,0-0.3,0.1-0.4c0.2-0.1,0.3,0,0.4,0.1c0.3,0.5,0.5,1,0.8,1.4
					c0.1,0.2,0,0.3-0.1,0.4c-0.2,0.1-0.3,0-0.4-0.1C884,469.7,883.7,469.2,883.4,468.7C883.4,468.8,883.4,468.7,883.4,468.7z
					 M872.9,442.9C872.9,442.9,872.9,442.9,872.9,442.9c-0.2-0.6-0.3-1.1-0.5-1.6c0-0.2,0.1-0.3,0.2-0.4c0.2,0,0.3,0.1,0.4,0.2
					c0.1,0.5,0.3,1,0.4,1.6c0,0.2,0,0.3-0.2,0.4C873.2,443.2,873,443.1,872.9,442.9z M885,471.6c-0.1-0.1,0-0.3,0.1-0.4
					c0.1-0.1,0.3,0,0.4,0.1c0.3,0.5,0.5,1,0.8,1.4c0.1,0.2,0,0.3-0.1,0.4c-0.1,0.1-0.3,0-0.4-0.1C885.6,472.6,885.3,472.1,885,471.6
					C885,471.6,885,471.6,885,471.6z M872.1,439.8C872.1,439.8,872.1,439.8,872.1,439.8c-0.2-0.6-0.3-1.1-0.4-1.6
					c0-0.2,0.1-0.3,0.2-0.4c0.2,0,0.3,0.1,0.4,0.2c0.1,0.5,0.3,1.1,0.4,1.6c0,0.2-0.1,0.3-0.2,0.4
					C872.3,440,872.1,439.9,872.1,439.8z M886.7,474.4c-0.1-0.1,0-0.3,0.1-0.4c0.1-0.1,0.3,0,0.4,0.1c0.3,0.5,0.6,0.9,0.8,1.4
					c0.1,0.2,0,0.3-0.1,0.4c-0.1,0.1-0.3,0-0.4-0.1C887.3,475.4,887,475,886.7,474.4C886.7,474.5,886.7,474.5,886.7,474.4z
					 M871.3,436.6C871.3,436.6,871.3,436.6,871.3,436.6c-0.1-0.6-0.3-1.1-0.4-1.7c0-0.2,0.1-0.3,0.2-0.4c0.2,0,0.3,0.1,0.4,0.2
					c0.1,0.5,0.2,1.1,0.4,1.6c0,0.2-0.1,0.3-0.2,0.4C871.5,436.8,871.3,436.7,871.3,436.6z M888.4,477.2c-0.1-0.1,0-0.3,0.1-0.4
					c0.1-0.1,0.3,0,0.4,0.1c0.3,0.5,0.6,0.9,0.9,1.4c0.1,0.1,0.1,0.3-0.1,0.4c-0.1,0.1-0.3,0.1-0.4-0.1
					C889,478.2,888.7,477.8,888.4,477.2C888.4,477.3,888.4,477.2,888.4,477.2z M870.6,433.4C870.6,433.4,870.5,433.4,870.6,433.4
					c-0.1-0.6-0.2-1.1-0.3-1.7c0-0.2,0.1-0.3,0.2-0.4c0.2,0,0.3,0.1,0.4,0.2c0.1,0.5,0.2,1.1,0.3,1.6c0,0.2-0.1,0.3-0.2,0.4
					C870.8,433.6,870.6,433.5,870.6,433.4z M890.2,480c-0.1-0.1,0-0.3,0.1-0.4c0.1-0.1,0.3-0.1,0.4,0.1c0.3,0.5,0.6,0.9,0.9,1.4
					c0.1,0.1,0.1,0.3-0.1,0.4c-0.1,0.1-0.3,0.1-0.4-0.1C890.8,481,890.5,480.5,890.2,480C890.2,480,890.2,480,890.2,480z
					 M869.9,430.2C869.9,430.2,869.9,430.1,869.9,430.2c-0.1-0.6-0.2-1.1-0.3-1.7c0-0.2,0.1-0.3,0.3-0.4c0.2,0,0.3,0.1,0.4,0.3
					c0.1,0.5,0.2,1.1,0.3,1.6c0,0.2-0.1,0.3-0.2,0.4C870.1,430.4,870,430.3,869.9,430.2z M892,482.7c-0.1-0.1,0-0.3,0.1-0.4
					c0.1-0.1,0.3-0.1,0.4,0.1c0.3,0.5,0.6,0.9,0.9,1.3c0.1,0.1,0.1,0.3-0.1,0.4c-0.1,0.1-0.3,0.1-0.4-0.1
					C892.7,483.7,892.4,483.2,892,482.7C892,482.7,892,482.7,892,482.7z M869.3,426.9C869.3,426.9,869.3,426.9,869.3,426.9
					c-0.1-0.6-0.2-1.2-0.3-1.7c0-0.2,0.1-0.3,0.3-0.4c0.2,0,0.3,0.1,0.4,0.3c0.1,0.5,0.2,1.1,0.3,1.6c0,0.2-0.1,0.3-0.3,0.4
					C869.5,427.2,869.4,427.1,869.3,426.9z M893.9,485.4c-0.1-0.1,0-0.3,0.1-0.4c0.1-0.1,0.3-0.1,0.4,0.1c0.3,0.5,0.7,0.9,1,1.3
					c0.1,0.1,0.1,0.3-0.1,0.4c-0.1,0.1-0.3,0.1-0.4-0.1C894.6,486.3,894.3,485.9,893.9,485.4C893.9,485.4,893.9,485.4,893.9,485.4z
					 M868.8,423.7C868.8,423.7,868.8,423.7,868.8,423.7c-0.1-0.5-0.1-0.9-0.2-1.3l0-0.4c0-0.2,0.1-0.3,0.3-0.3
					c0.2,0,0.3,0.1,0.3,0.3l0,0.4c0.1,0.4,0.1,0.8,0.2,1.2c0,0.2-0.1,0.3-0.3,0.4C869,423.9,868.9,423.8,868.8,423.7z M895.9,488
					c-0.1-0.1,0-0.3,0.1-0.4c0.1-0.1,0.3-0.1,0.4,0l1.1,1.3c0.1,0.1,0.1,0.3,0,0.4c-0.1,0.1-0.3,0.1-0.4,0L895.9,488
					C895.9,488,895.9,488,895.9,488z M868.4,420.4C868.4,420.4,868.4,420.4,868.4,420.4l-0.2-1.7c0-0.2,0.1-0.3,0.3-0.3
					c0.2,0,0.3,0.1,0.3,0.3l0.2,1.6c0,0.2-0.1,0.3-0.3,0.3C868.6,420.6,868.5,420.6,868.4,420.4z M898,490.5c-0.1-0.1,0-0.3,0.1-0.4
					c0.1-0.1,0.3-0.1,0.4,0l1.1,1.3c0.1,0.1,0.1,0.3,0,0.4c-0.1,0.1-0.3,0.1-0.4,0L898,490.5C898.1,490.6,898,490.5,898,490.5z
					 M868.1,417.2C868.1,417.1,868.1,417.1,868.1,417.2l-0.2-1.7c0-0.2,0.1-0.3,0.3-0.3c0.2,0,0.3,0.1,0.3,0.3l0.2,1.6
					c0,0.2-0.1,0.3-0.3,0.3C868.3,417.4,868.2,417.3,868.1,417.2z M900.1,493c-0.1-0.1,0-0.3,0.1-0.4c0.1-0.1,0.3-0.1,0.4,0l1,1.3
					c0.1,0.1,0.1,0.3,0,0.4c-0.1,0.1-0.3,0.1-0.4,0L900.1,493C900.2,493.1,900.1,493,900.1,493z"/>
			</g>
			<g>
				<path class="st19" d="M902.2,495.5c-0.1-0.1,0-0.3,0.1-0.4c0.1-0.1,0.3-0.1,0.4,0l0.5,0.6c0.1,0.1,0.1,0.3,0,0.4
					c-0.1,0.1-0.3,0.1-0.4,0L902.2,495.5C902.3,495.6,902.3,495.6,902.2,495.5z"/>
			</g>
		</g>
		<path class="st18" d="M1012.9,453.6c-0.6-17.5-7.1-45.7-14.8-64.1c-1.2-2.9-2.4-5.5-3.7-7.8c-8-15.1-14.9-22.8-22.3-24.9
			c-3.6-1-7.3-0.7-11,0.9c-3.5-3.2-13.9-9.9-32.3-1.2c-20.1,9.5-40.5,21.7-46.5,43.6c-0.8,3.1-3.2,4.6-6.4,7.3
			c-1.3,1.1-5.9,4.7-5.9,4.7l2,10.8c1.2,8.5,3.3,20.4,8.7,33.4c5.4,12.9,12.6,22.9,17.5,29.4l6.6,9.6c0,0,8,0.2,10.1,0.2
			c3.5-0.1,38.6-2.8,58-5.4C993.4,487.3,1013.7,474.9,1012.9,453.6z"/>
		<path class="st20" d="M1010,453.7c-0.7-19.5-9-53.3-18.2-70.6c-9.2-17.3-18.8-29-31.3-21.8c0,0-9-12.3-30.4-2.2
			c-21.4,10.1-40.4,22.1-45.9,42.2c-1.3,4.7-5.8,6.6-14.2,10.8l1,10.9c1.2,8.5,3.7,21,9,33.6c5.2,12.3,11.7,22.3,16.8,29l8.1,9.6
			l7.9-1.1c0,0,40.2-4.3,59.8-7C992.3,484.5,1010.7,473,1010,453.7z"/>
		<path class="st18" d="M859.9,497.8c-3.7,1.6-8-0.2-9.6-3.9l-25.5-60.8c-1.6-3.7,0.3-7.8,4-9.3l31-13c0,0-4.1,2.3-1.6,8.3
			l25.5,60.8c1.6,3.7-0.2,8-3.9,9.6L859.9,497.8z"/>
		<path class="st20" d="M860.4,492.3c-2.9,1.2-6.2-0.1-7.5-3.1L828.1,430c-1.2-2.9,0.2-6,3.1-7.3l24.2-10.1c0,0-3.2,1.8-1.2,6.5
			l24.9,59.3c1.2,2.9-0.1,6.2-3.1,7.5L860.4,492.3z"/>
		<g>
			<path class="st21" d="M855.3,412.7C855.4,412.7,855.4,412.6,855.3,412.7L855.3,412.7C855.3,412.7,855.3,412.7,855.3,412.7z"/>
			<path class="st21" d="M879.4,479.9c-0.5,0.5-1.1,0.9-1.8,1.2l-15.6,6.5c-2.9,1.2-6.2-0.1-7.5-3.1l-24.9-59.3
				c-0.2-0.4-0.3-0.9-0.4-1.3c-1.6,1.5-2.2,3.8-1.3,6l24.9,59.3c1.2,2.9,4.6,4.3,7.5,3.1l15.6-6.5
				C878.4,484.8,879.7,482.4,879.4,479.9z"/>
		</g>
		<path class="st22" d="M884.3,401c0,0.1,0,0.2-0.1,0.2c-1.3,4.7-5.8,6.6-14.2,10.8l1,10.9c1.2,8.5,3.7,21,9,33.6
			c5.2,12.3,11.7,22.3,16.8,29l8.1,9.6l7.9-1.1c0,0,40.2-4.3,59.8-7c15.1-2.1,29.5-9.3,35-21.4C913.8,499.1,889.9,428.2,884.3,401z"
			/>
		<path class="st23" d="M963.5,372.1c3.6-3.2,10.1-6.8,18.4,5.1c8.3,11.9,26.8,58.9,18.4,77.7c0,0,0.4-15.9-9.8-32.2
			C980.3,406.4,949.3,384.7,963.5,372.1z"/>
		<path class="st23" d="M917.8,369.6c0,0,13.1-8.5,22.1-10.2c12.8-2.3,16.1,1.9,16,5.1c-0.2,5.6-6.3,6.8-15.1,4
			C932.9,366,923.4,367,917.8,369.6z"/>
		<path class="st23" d="M929.2,389.8c3.8-3.4,7.2-7.5,11.9-4.2c4.3,3.1,3,13.7-17.6,18.7c-20.7,5.1-27.6,15.4-22.5,25.4
			c5.1,10-5.7,10.6-10.7-19.6c-4.7-28.7,24.6-41,29.8-35.2c6.5,7.4-6.3,13.1-0.6,18C922.3,395.5,927.7,391.1,929.2,389.8z"/>
		<path class="st7" d="M964.9,362.2c0,0,11.1-2.6,21.9,15.3c7.7,12.9,11.9,24.6,16.3,46.7c0,0-4.7-19.1-13.9-37.9
			C982.1,371.9,971.4,361.9,964.9,362.2z"/>
		<g>
			<g>
				<path class="st18" d="M956.9,358c3.2,2.3,2.4,8.5,1.4,11.6c-1.7,5.1-9.1,6.1-13.5,7.4c-4.3,1.3-8.5,3.2-12.7,4.9
					c-4.3,1.7-8.6,3.8-11.9,7.2c-1.1,1.2,0.9,2.7,2,1.5c4.4-4.6,11.1-6.4,16.8-8.7c5.3-2,11-3.3,16.1-5.8c6.4-3.1,9.7-15.3,3.2-20.1
					C957.1,355.1,955.6,357.1,956.9,358L956.9,358z"/>
			</g>
			<path class="st18" d="M952.7,376.4c0,0,3.7,3.3,4.3,8.2c0,0-2.7-6.4-7.2-7.6L952.7,376.4z"/>
			<path class="st18" d="M960.7,365.9c0,0,3.9-1.7,6.6,0.3c0,0-4.4-0.4-6.8,2L960.7,365.9z"/>
			<path class="st18" d="M937.8,380.7c0,0-1.9-6.7-6.3-7c0,0,4.1,3.1,3.8,8.1L937.8,380.7z"/>
			<path class="st18" d="M958.1,372.7c0,0,1.9,0.3,2.8,1.7c0,0-2.4-0.8-4.7,0.1L958.1,372.7z"/>
			<path class="st18" d="M928.3,385.7c0,0-2.4,2.5-1.7,5c0,0-1.2-1.3-0.9-3.5L928.3,385.7z"/>
			<path class="st18" d="M926.8,384.3c0,0-3.2,1.9-5.4,0.3c0,0,1.6,1.6,3.2,1.9L926.8,384.3z"/>
			<path class="st18" d="M941.6,380.2c0,0,2.2,4.9,6.2,5.9c0,0-5.8,0.1-8.1-5.6L941.6,380.2z"/>
			<path class="st18" d="M946.5,377c0,0,0.1-4.8-4-5.4c0,0,3.7,2.6,2.3,6.1L946.5,377z"/>
		</g>
		<path class="st23" d="M869.7,464.8c2-1.6-10.2-21.9-13.6-31.1c-3.4-9.2-3.1-18.6-7.3-14.6c-4.2,4-11.5,3.6-11.9,4.7
			c-0.9,2.4,5.5,2.2,9.7,2.9C850.7,427.2,862.9,470.2,869.7,464.8z"/>
		<path class="st7" d="M941.5,357.3c0,0,11.3-2.6,14.9,3C956.4,360.3,950.7,356.9,941.5,357.3z"/>
		<g>
			<g>
				<g>
					<path class="st19" d="M819.2,432.2l-0.3-0.8c-0.1-0.2,0-0.5,0.2-0.5c0.2-0.1,0.5,0,0.5,0.2l0.3,0.8c0.1,0.2,0,0.5-0.2,0.5
						C819.6,432.5,819.3,432.4,819.2,432.2z"/>
				</g>
				<g>
					<path class="st19" d="M854.1,515.3l-0.6-1.5c-0.1-0.2,0-0.5,0.2-0.5c0.2-0.1,0.5,0,0.5,0.2l0.6,1.5c0.1,0.2,0,0.5-0.2,0.5
						C854.4,515.7,854.2,515.6,854.1,515.3z M852.8,512.3l-0.6-1.5c-0.1-0.2,0-0.5,0.2-0.5c0.2-0.1,0.5,0,0.5,0.2l0.6,1.5
						c0.1,0.2,0,0.5-0.2,0.5C853.1,512.6,852.9,512.5,852.8,512.3z M851.5,509.2l-0.6-1.5c-0.1-0.2,0-0.5,0.2-0.5
						c0.2-0.1,0.5,0,0.5,0.2l0.6,1.5c0.1,0.2,0,0.5-0.2,0.5C851.8,509.5,851.6,509.4,851.5,509.2z M850.2,506.1l-0.6-1.5
						c-0.1-0.2,0-0.5,0.2-0.5c0.2-0.1,0.5,0,0.5,0.2l0.6,1.5c0.1,0.2,0,0.5-0.2,0.5C850.6,506.4,850.3,506.3,850.2,506.1z
						 M848.9,503l-0.6-1.5c-0.1-0.2,0-0.5,0.2-0.5c0.2-0.1,0.5,0,0.5,0.2l0.6,1.5c0.1,0.2,0,0.5-0.2,0.5
						C849.3,503.3,849,503.2,848.9,503z M847.6,500l-0.6-1.5c-0.1-0.2,0-0.5,0.2-0.5c0.2-0.1,0.5,0,0.5,0.2l0.6,1.5
						c0.1,0.2,0,0.5-0.2,0.5C848,500.3,847.7,500.2,847.6,500z M846.3,496.9l-0.6-1.5c-0.1-0.2,0-0.5,0.2-0.5c0.2-0.1,0.5,0,0.5,0.2
						l0.7,1.5c0.1,0.2,0,0.5-0.2,0.5C846.7,497.2,846.4,497.1,846.3,496.9z M845.1,493.8l-0.6-1.5c-0.1-0.2,0-0.5,0.2-0.5
						c0.2-0.1,0.5,0,0.5,0.2l0.6,1.5c0.1,0.2,0,0.5-0.2,0.5C845.4,494.1,845.1,494,845.1,493.8z M843.8,490.7l-0.6-1.5
						c-0.1-0.2,0-0.5,0.2-0.5c0.2-0.1,0.5,0,0.5,0.2l0.6,1.5c0.1,0.2,0,0.5-0.2,0.5C844.1,491,843.9,490.9,843.8,490.7z
						 M842.5,487.6l-0.6-1.5c-0.1-0.2,0-0.5,0.2-0.5c0.2-0.1,0.5,0,0.5,0.2l0.6,1.5c0.1,0.2,0,0.5-0.2,0.5
						C842.8,487.9,842.6,487.8,842.5,487.6z M841.2,484.6l-0.6-1.5c-0.1-0.2,0-0.5,0.2-0.5c0.2-0.1,0.5,0,0.5,0.2l0.6,1.5
						c0.1,0.2,0,0.5-0.2,0.5C841.5,484.9,841.3,484.8,841.2,484.6z M839.9,481.5l-0.6-1.5c-0.1-0.2,0-0.5,0.2-0.5
						c0.2-0.1,0.5,0,0.5,0.2l0.6,1.5c0.1,0.2,0,0.5-0.2,0.5C840.2,481.8,840,481.7,839.9,481.5z M838.6,478.4l-0.6-1.5
						c-0.1-0.2,0-0.5,0.2-0.5c0.2-0.1,0.5,0,0.5,0.2l0.6,1.5c0.1,0.2,0,0.5-0.2,0.5C838.9,478.7,838.7,478.6,838.6,478.4z
						 M837.3,475.3l-0.6-1.5c-0.1-0.2,0-0.5,0.2-0.5c0.2-0.1,0.5,0,0.5,0.2l0.6,1.5c0.1,0.2,0,0.5-0.2,0.5
						C837.6,475.6,837.4,475.5,837.3,475.3z M836,472.2l-0.6-1.5c-0.1-0.2,0-0.5,0.2-0.5c0.2-0.1,0.5,0,0.5,0.2l0.6,1.5
						c0.1,0.2,0,0.5-0.2,0.5C836.3,472.5,836.1,472.4,836,472.2z M834.7,469.2l-0.6-1.5c-0.1-0.2,0-0.5,0.2-0.5
						c0.2-0.1,0.5,0,0.5,0.2l0.6,1.5c0.1,0.2,0,0.5-0.2,0.5C835.1,469.5,834.8,469.4,834.7,469.2z M833.4,466.1l-0.6-1.5
						c-0.1-0.2,0-0.5,0.2-0.5c0.2-0.1,0.5,0,0.5,0.2l0.6,1.5c0.1,0.2,0,0.5-0.2,0.5C833.8,466.4,833.5,466.3,833.4,466.1z
						 M832.1,463l-0.6-1.5c-0.1-0.2,0-0.5,0.2-0.5c0.2-0.1,0.5,0,0.5,0.2l0.6,1.5c0.1,0.2,0,0.5-0.2,0.5
						C832.5,463.3,832.2,463.2,832.1,463z M830.9,459.9l-0.6-1.5c-0.1-0.2,0-0.5,0.2-0.5c0.2-0.1,0.5,0,0.5,0.2l0.6,1.5
						c0.1,0.2,0,0.5-0.2,0.5C831.2,460.2,830.9,460.1,830.9,459.9z M829.6,456.8l-0.6-1.5c-0.1-0.2,0-0.5,0.2-0.5
						c0.2-0.1,0.5,0,0.5,0.2l0.6,1.5c0.1,0.2,0,0.5-0.2,0.5C829.9,457.2,829.6,457,829.6,456.8z M828.3,453.8l-0.6-1.5
						c-0.1-0.2,0-0.5,0.2-0.5c0.2-0.1,0.5,0,0.5,0.2l0.6,1.5c0.1,0.2,0,0.5-0.2,0.5C828.6,454.1,828.4,454,828.3,453.8z M827,450.7
						l-0.6-1.5c-0.1-0.2,0-0.5,0.2-0.5c0.2-0.1,0.5,0,0.5,0.2l0.6,1.5c0.1,0.2,0,0.5-0.2,0.5C827.3,451,827.1,450.9,827,450.7z
						 M825.7,447.6l-0.6-1.5c-0.1-0.2,0-0.5,0.2-0.5c0.2-0.1,0.5,0,0.5,0.2l0.6,1.5c0.1,0.2,0,0.5-0.2,0.5
						C826,447.9,825.8,447.8,825.7,447.6z M824.4,444.5l-0.6-1.5c-0.1-0.2,0-0.5,0.2-0.5c0.2-0.1,0.5,0,0.5,0.2l0.6,1.5
						c0.1,0.2,0,0.5-0.2,0.5C824.7,444.8,824.5,444.7,824.4,444.5z M823.1,441.4l-0.6-1.5c-0.1-0.2,0-0.5,0.2-0.5
						c0.2-0.1,0.5,0,0.5,0.2l0.6,1.5c0.1,0.2,0,0.5-0.2,0.5C823.4,441.8,823.2,441.7,823.1,441.4z M821.8,438.4l-0.6-1.5
						c-0.1-0.2,0-0.5,0.2-0.5c0.2-0.1,0.5,0,0.5,0.2l0.6,1.5c0.1,0.2,0,0.5-0.2,0.5C822.1,438.7,821.9,438.6,821.8,438.4z
						 M820.5,435.3l-0.6-1.5c-0.1-0.2,0-0.5,0.2-0.5c0.2-0.1,0.5,0,0.5,0.2l0.6,1.5c0.1,0.2,0,0.5-0.2,0.5
						C820.9,435.6,820.6,435.5,820.5,435.3z"/>
				</g>
				<g>
					<path class="st19" d="M855.1,517.7l-0.3-0.8c-0.1-0.2,0-0.5,0.2-0.5c0.2-0.1,0.5,0,0.5,0.2l0.3,0.8c0.1,0.2,0,0.5-0.2,0.5
						C855.4,518,855.2,517.9,855.1,517.7z"/>
				</g>
			</g>
		</g>
		<path class="st24" d="M857.2,516.6c-0.3,0.3-0.6,0.5-0.9,0.7c-1.3,0.6-2.9-0.1-3.4-1.4l-34.9-83.2c-0.2-0.4-0.2-0.8-0.2-1.2
			c-0.6,0.7-0.8,1.8-0.4,2.7l34.9,83.2c0.6,1.3,2.1,1.9,3.4,1.4C856.5,518.4,857.1,517.5,857.2,516.6z"/>
	</g>
	<g>
		<g>
			<path class="st4" d="M892.4,506.9c-13.4-7.2-27.2-12.9-41.6-17.7c-26.9-9.1-52.9-23-78.9-34.4c-5.3,14.5-9.1,30.7-16.6,44.3
				c-3,5.5,60.3,43.5,67.2,46.9c15,7.3,33.6,12.5,50.4,11.6c9.7-0.5,19.3-3.3,27.1-9.3c7.8-6,11.8-14.2,16.9-22.4"/>
			<g>
				<path class="st5" d="M893.3,505.4c-7.5-4-15.2-7.6-23-10.8c-7.9-3.3-15.9-5.9-23.9-8.8c-16.2-5.8-31.7-13.1-47.2-20.4
					c-8.8-4.1-17.5-8.3-26.4-12.2c-1.1-0.5-2.2-0.1-2.6,1.1c-4.1,11.1-7.1,22.6-11.5,33.6c-1.1,2.7-2.3,5.4-3.6,8
					c-0.6,1.1-1.6,2.4-1.6,3.7c0,1.4,1,2.6,1.9,3.7c2.8,3.3,6.6,6,10.1,8.6c5.1,3.8,10.5,7.4,15.8,11c10.6,7,21.5,13.8,32.5,20.2
					c3.1,1.8,6.2,3.6,9.4,5.2c10.6,5,21.8,8.6,33.4,10.3c11.2,1.6,23,1.5,33.7-2.7c5.3-2.1,10.2-5,14.2-9c3.9-3.8,6.9-8.3,9.7-12.9
					c1.4-2.4,2.8-4.7,4.2-7.1c1.2-2-1.9-3.7-3.1-1.8c-2.8,4.5-5.3,9.2-8.4,13.5c-3.2,4.4-7,8.1-11.7,10.9
					c-9.5,5.7-20.8,7.1-31.8,6.3c-16-1.1-31.8-6.3-45.7-14.3c-10.3-5.9-20.3-12.2-30.3-18.6c-5.5-3.5-10.9-7.1-16.2-10.9
					c-4.1-2.9-7.9-5.6-11.5-9c-0.6-0.6-1.2-1.1-1.7-1.8c-0.1-0.2-0.8-0.9-0.4-0.5c-0.2-0.2-0.3-0.5-0.5-0.7
					c-0.1-0.1-0.1-0.2-0.2-0.3c-0.2-0.3,0,0.2,0,0.1c0,0-0.1-0.2-0.1-0.3c0-0.4,0,0.5,0,0.1c0-0.4-0.1,0.4,0,0.2
					c0.1-0.2-0.5,0.8,0.1-0.2c0.7-1.3,1.4-2.6,2-3.9c5-10.4,8.2-21.6,11.8-32.6c0.9-2.6,1.8-5.3,2.7-7.9c-0.9,0.4-1.7,0.7-2.6,1.1
					c15.8,6.9,31.2,14.6,46.9,21.6c7.8,3.5,15.6,6.8,23.6,9.8c8,3,16.1,5.6,24,8.7c8.9,3.5,17.6,7.5,26,12
					C893.5,509.5,895.3,506.5,893.3,505.4L893.3,505.4z"/>
			</g>
		</g>
	</g>
	<g>
		<path class="st4" d="M860.1,492.7c10.2,0,20.5,0,30.7,2.4"/>
		<g>
			<path class="st5" d="M860.1,494.5c10.1,0,20.3,0,30.3,2.3c2.2,0.5,3.2-2.9,0.9-3.4c-10.3-2.3-20.8-2.4-31.2-2.4
				C857.8,490.9,857.8,494.5,860.1,494.5L860.1,494.5z"/>
		</g>
	</g>
	<g>
		<g>
			<path class="st5" d="M730.3,494.8c-5.2-0.5-10.4-0.7-15.6,0c-5.2,0.7-10.2,2.2-15,4.4c-0.9,0.4-1.1,1.7-0.6,2.4
				c0.5,0.9,1.6,1,2.4,0.6c4.4-2,9.2-3.4,14-4c4.9-0.6,9.9-0.4,14.8,0.1C732.6,498.6,732.6,495,730.3,494.8L730.3,494.8z"/>
		</g>
	</g>
	<g>
		<g>
			<g>
				<g>
					<polygon class="st25" points="1085.9,363.3 1090.7,377.5 1105.2,381.6 1093.1,390.6 1093.7,405.6 1081.4,396.9 1067.3,402.1 
						1071.8,387.7 1062.5,375.9 1077.5,375.7 					"/>
					<polygon class="st26" points="1085.9,363.3 1090.7,377.5 1105.2,381.6 1093.1,390.6 1093.7,405.6 1081.4,396.9 1067.3,402.1 
						1071.8,387.7 1062.5,375.9 1077.5,375.7 					"/>
				</g>
				<polygon class="st27" points="1106,382.1 1106.5,378 1095.8,380 				"/>
				<polygon class="st27" points="1061.9,376.3 1062.4,372.1 1072.2,376.9 				"/>
				<g>
					<polygon class="st25" points="1086.4,359.5 1091.2,373.8 1105.7,377.9 1093.6,386.8 1094.2,401.9 1081.9,393.2 1067.8,398.4 
						1072.3,384 1063,372.2 1078,372 					"/>
					<polygon class="st26" points="1086.4,359.5 1091.2,373.8 1105.7,377.9 1093.6,386.8 1094.2,401.9 1081.9,393.2 1067.8,398.4 
						1072.3,384 1063,372.2 1078,372 					"/>
				</g>
			</g>
			<g>
				<g>
					<polygon class="st25" points="1044.7,219.6 1039.9,233.9 1025.4,238 1037.5,247 1036.9,262 1049.2,253.3 1063.3,258.5 
						1058.8,244.1 1068.1,232.3 1053.1,232.1 					"/>
					<polygon class="st26" points="1044.7,219.6 1039.9,233.9 1025.4,238 1037.5,247 1036.9,262 1049.2,253.3 1063.3,258.5 
						1058.8,244.1 1068.1,232.3 1053.1,232.1 					"/>
				</g>
				<polygon class="st27" points="1024.7,238.5 1024.1,234.4 1034.8,236.4 				"/>
				<polygon class="st27" points="1068.8,232.6 1068.2,228.5 1058.4,233.3 				"/>
				<g>
					<polygon class="st25" points="1044.2,215.9 1039.4,230.1 1024.9,234.2 1037,243.2 1036.4,258.3 1048.7,249.6 1062.8,254.8 
						1058.3,240.4 1067.6,228.6 1052.6,228.4 					"/>
					<polygon class="st26" points="1044.2,215.9 1039.4,230.1 1024.9,234.2 1037,243.2 1036.4,258.3 1048.7,249.6 1062.8,254.8 
						1058.3,240.4 1067.6,228.6 1052.6,228.4 					"/>
				</g>
			</g>
			<g>
				<g>
					<polygon class="st25" points="1096.4,281.7 1103,295.2 1117.9,297.3 1107.2,307.8 1109.7,322.6 1096.4,315.6 1083.1,322.6 
						1085.6,307.8 1074.9,297.3 1089.7,295.2 					"/>
					<polygon class="st26" points="1096.4,281.7 1103,295.2 1117.9,297.3 1107.2,307.8 1109.7,322.6 1096.4,315.6 1083.1,322.6 
						1085.6,307.8 1074.9,297.3 1089.7,295.2 					"/>
				</g>
				<polygon class="st27" points="1118.8,297.7 1118.8,293.6 1108.4,297 				"/>
				<polygon class="st27" points="1074.3,297.7 1074.3,293.6 1084.6,297 				"/>
				<g>
					<polygon class="st25" points="1096.4,277.9 1103,291.4 1117.9,293.6 1107.2,304.1 1109.7,318.9 1096.4,311.9 1083.1,318.9 
						1085.6,304.1 1074.9,293.6 1089.7,291.4 					"/>
					<polygon class="st26" points="1096.4,277.9 1103,291.4 1117.9,293.6 1107.2,304.1 1109.7,318.9 1096.4,311.9 1083.1,318.9 
						1085.6,304.1 1074.9,293.6 1089.7,291.4 					"/>
				</g>
			</g>
		</g>
	</g>
	<g>
		<g>
			<g>
				<g>
					<polygon class="st25" points="517.1,363.3 512.3,377.5 497.8,381.6 509.8,390.6 509.3,405.6 521.5,396.9 535.7,402.1 
						531.2,387.7 540.5,375.9 525.4,375.7 					"/>
					<polygon class="st26" points="517.1,363.3 512.3,377.5 497.8,381.6 509.8,390.6 509.3,405.6 521.5,396.9 535.7,402.1 
						531.2,387.7 540.5,375.9 525.4,375.7 					"/>
				</g>
				<polygon class="st27" points="497,382.1 496.5,378 507.2,380 				"/>
				<polygon class="st27" points="541.1,376.3 540.6,372.1 530.8,376.9 				"/>
				<g>
					<polygon class="st25" points="516.6,359.5 511.8,373.8 497.3,377.9 509.3,386.8 508.8,401.9 521,393.2 535.2,398.4 530.7,384 
						540,372.2 524.9,372 					"/>
					<polygon class="st26" points="516.6,359.5 511.8,373.8 497.3,377.9 509.3,386.8 508.8,401.9 521,393.2 535.2,398.4 530.7,384 
						540,372.2 524.9,372 					"/>
				</g>
			</g>
			<g>
				<g>
					<polygon class="st25" points="558.3,219.6 563.1,233.9 577.5,238 565.5,247 566.1,262 553.8,253.3 539.7,258.5 544.2,244.1 
						534.9,232.3 549.9,232.1 					"/>
					<polygon class="st26" points="558.3,219.6 563.1,233.9 577.5,238 565.5,247 566.1,262 553.8,253.3 539.7,258.5 544.2,244.1 
						534.9,232.3 549.9,232.1 					"/>
				</g>
				<polygon class="st27" points="578.3,238.5 578.9,234.4 568.1,236.4 				"/>
				<polygon class="st27" points="534.2,232.6 534.8,228.5 544.6,233.3 				"/>
				<g>
					<polygon class="st25" points="558.8,215.9 563.6,230.1 578,234.2 566,243.2 566.6,258.3 554.3,249.6 540.2,254.8 544.6,240.4 
						535.4,228.6 550.4,228.4 					"/>
					<polygon class="st26" points="558.8,215.9 563.6,230.1 578,234.2 566,243.2 566.6,258.3 554.3,249.6 540.2,254.8 544.6,240.4 
						535.4,228.6 550.4,228.4 					"/>
				</g>
			</g>
			<g>
				<g>
					<polygon class="st25" points="506.6,281.7 499.9,295.2 485.1,297.3 495.8,307.8 493.3,322.6 506.6,315.6 519.9,322.6 
						517.4,307.8 528.1,297.3 513.2,295.2 					"/>
					<polygon class="st26" points="506.6,281.7 499.9,295.2 485.1,297.3 495.8,307.8 493.3,322.6 506.6,315.6 519.9,322.6 
						517.4,307.8 528.1,297.3 513.2,295.2 					"/>
				</g>
				<polygon class="st27" points="484.2,297.7 484.2,293.6 494.6,297 				"/>
				<polygon class="st27" points="528.7,297.7 528.7,293.6 518.4,297 				"/>
				<g>
					<polygon class="st25" points="506.6,277.9 499.9,291.4 485.1,293.6 495.8,304.1 493.3,318.9 506.6,311.9 519.9,318.9 
						517.4,304.1 528.1,293.6 513.2,291.4 					"/>
					<polygon class="st26" points="506.6,277.9 499.9,291.4 485.1,293.6 495.8,304.1 493.3,318.9 506.6,311.9 519.9,318.9 
						517.4,304.1 528.1,293.6 513.2,291.4 					"/>
				</g>
			</g>
		</g>
	</g>
	<g>
		<g>
			<g>
				<g>
					<g>
						<path class="st28" d="M1022.9,640c7.3,7,14.6,19.2,25.2,15.5c10.8-3.7,21.2-8.3,31.7-12.8c16.9-7.3,33.8-14.9,50.3-23.1
							c12.3-6.2,24.8-12.9,35.7-21.2c1.8-1.4,5.5-5.1,4.1-7.6c0,0-81.1-145.9-81.2-146c5.2,9.4-40.4,30.9-46,33.9
							c-15.9,8.3-37.3,15.3-47.7,30.8c-6.1,9.1-3,15.5,4.6,21.7c11.9,9.8,20.5,24.6,25.2,39.1"/>
					</g>
				</g>
			</g>
			<g>
				<path class="st29" d="M1026.2,513.7c-5.9-2.5-12.9,0.1-18.3,2.9c-2.8,1.5-16.3,8.2-14.8-1.1c-6.6,8.1,2.3,14.4,5.7,22.2
					c2.5,5.8,5.5,12.5,8.1,17.9c1.9,3.9,1.1,4.3,6.5,3.1c8.4-1.8,15.7-8.2,19.6-15.8c3.4-6.8,3.1-19.8-2-25.7
					C1029.5,515.6,1027.9,514.5,1026.2,513.7z"/>
			</g>
		</g>
		<g>
			<g>
				<g>
					<g>
						<path class="st28" d="M567.2,643c-7.3,7-14.6,19.2-25.2,15.5c-10.8-3.7-21.2-8.3-31.7-12.8c-16.9-7.3-33.8-14.9-50.3-23.1
							c-12.3-6.2-24.8-12.9-35.7-21.2c-1.8-1.4-5.5-5.1-4.1-7.6c0,0,81.1-145.9,81.2-146c-5.2,9.4,40.4,30.9,46,33.9
							c15.9,8.3,37.3,15.3,47.7,30.8c6.1,9.1,3,15.5-4.6,21.7c-11.9,9.8-20.5,24.6-25.2,39.1"/>
					</g>
				</g>
			</g>
			<g>
				<path class="st29" d="M563.8,516.7c5.9-2.5,12.9,0.1,18.3,2.9c2.8,1.5,16.3,8.2,14.8-1.1c6.6,8.1-2.3,14.4-5.7,22.2
					c-2.5,5.8-5.5,12.5-8.1,17.9c-1.9,3.9-1.1,4.3-6.5,3.1c-8.4-1.8-15.7-8.2-19.6-15.8c-3.4-6.8-3.1-19.8,2-25.7
					C560.5,518.5,562.1,517.4,563.8,516.7z"/>
			</g>
		</g>
		<g>
			<g>
				<g>
					<path class="st30" d="M558.3,524l-89.1,138.6c59.6,72.2,215,113,343.1,106.7c105.3-5.2,240.1-41.3,302-98.7l-81.2-146
						c-49.9,46.2-133.4,76.5-223.4,80.9c-55,2.7-108.4-4.3-154.5-20.3C613.3,570.7,578.8,549,558.3,524z"/>
				</g>
			</g>
		</g>
		<g>
			<path class="st31" d="M999.8,569.7c0,0,29.3-12.4,40.8-31.9"/>
			<path class="st31" d="M1063.7,686.7c0,0,29.3-12.4,40.8-31.9"/>
			<path class="st31" d="M1030.8,592.8c0,0,21.3-8.9,27.5-20.4"/>
			<path class="st31" d="M1043.3,616.7c0,0,21.3-10.6,27.5-22.2"/>
			<path class="st31" d="M1074.3,627.3c0,0,8-5.3,10.6-9.8"/>
			<path class="st31" d="M1071.6,661.9c0,0,17.7-9.8,24.8-23.1"/>
			<path class="st28" d="M1028.2,574.1c0,0,12.4-4.4,21.3-17.7"/>
			<path class="st28" d="M1056.6,624.1c0,0,16.5-10,21.9-17.7"/>
			<path class="st28" d="M1067.8,647.1c0,0,18.3-11.2,22.5-18.3"/>
		</g>
		<g>
			<path class="st31" d="M1055.7,489c0,0,29.3-12.4,40.8-31.9"/>
			<path class="st31" d="M1119.5,606.1c0,0,29.3-12.4,40.8-31.9"/>
			<path class="st31" d="M1086.7,512.1c0,0,21.3-8.9,27.5-20.4"/>
			<path class="st31" d="M1099.1,536c0,0,21.3-10.6,27.5-22.2"/>
			<path class="st31" d="M1130.1,546.7c0,0,8-5.3,10.6-9.8"/>
			<path class="st31" d="M1127.5,581.2c0,0,17.7-9.8,24.8-23.1"/>
			<path class="st28" d="M1084,493.5c0,0,12.4-4.4,21.3-17.7"/>
			<path class="st28" d="M1112.4,543.4c0,0,16.5-10,21.9-17.7"/>
			<path class="st28" d="M1123.6,566.5c0,0,18.3-11.2,22.5-18.3"/>
		</g>
		<g>
			<path class="st31" d="M589.4,573.7c0,0-28.4-14.3-38.6-34.5"/>
			<path class="st31" d="M518,686.3c0,0-28.4-14.3-38.6-34.5"/>
			<path class="st31" d="M556.9,594.7c0,0-20.6-10.3-26.1-22.2"/>
			<path class="st31" d="M543,617.7c0,0-20.5-12-26-23.9"/>
			<path class="st31" d="M511.3,626.3c0,0-7.6-5.8-10-10.4"/>
			<path class="st31" d="M511.7,661c0,0-17-10.9-23.2-24.6"/>
			<path class="st28" d="M560.8,576.3c0,0-12.1-5.2-20.1-19.1"/>
			<path class="st28" d="M529.2,624.2c0,0-15.8-11.1-20.6-19.1"/>
			<path class="st28" d="M516.5,646.5c0,0-17.5-12.4-21.2-19.8"/>
		</g>
		<g>
			<path class="st31" d="M532.7,496.7c0,0-29.2-12.5-40.7-32"/>
			<path class="st31" d="M468.7,613.6c0,0-29.2-12.5-40.7-32"/>
			<path class="st31" d="M501.6,519.7c0,0-21.3-8.9-27.4-20.4"/>
			<path class="st31" d="M489.2,543.6c0,0-21.3-10.7-27.4-22.2"/>
			<path class="st31" d="M458.1,554.2c0,0-8-5.3-10.6-9.8"/>
			<path class="st31" d="M460.7,588.7c0,0-17.7-9.8-24.8-23.1"/>
			<path class="st28" d="M504.3,501c0,0-12.4-4.5-21.2-17.8"/>
			<path class="st28" d="M475.9,550.9c0,0-16.5-10.1-21.8-17.8"/>
			<path class="st28" d="M464.6,574c0,0-18.3-11.3-22.4-18.4"/>
		</g>
	</g>
	<path id="SVGID_x5F_3_x5F_" class="st32" d="M339.3,566.5c0,0,413.8,350,890.9,6.6"/>
	<text>	<textPath  xlink:href="#SVGID_x5F_3_x5F_" startOffset="0.549%">
<tspan  class="st5" style="font-family:'BMEULJIROTTF'; font-size:101.0924px;">        </tspan><tspan  class="st27" style="font-family:'BMEULJIROTTF'; font-size:101.0924px;"> </tspan>	</textPath>
</text>
	<path id="SVGID_x5F_4_x5F_" class="st32" d="M605.5,204.5c0,0,176.2-161.1,393.2,0"/>
	<text>	<textPath  xlink:href="#SVGID_x5F_4_x5F_" startOffset="0.586%">
<tspan  style="fill:none;stroke:#242A56;stroke-width:5;stroke-miterlimit:10; font-family:'BMEULJIROTTF'; font-size:97.2528px;">    </tspan><tspan  style="fill:#FFFFFF;stroke:#242A56;stroke-width:5;stroke-miterlimit:10; font-family:'BMEULJIROTTF'; font-size:97.2528px;"></tspan>	</textPath>
</text>
	<g>
		<path class="st15" d="M730,411.1c1.5-2.4,3.8-3.8,5.5-3c1.8,0.7,2.4,3.3,1.7,6.1L730,411.1z"/>
		<path class="st16" d="M740.1,508.4l33.2-79.1L724.9,409c0,0-0.6,20.9-9.5,42.3c-9.4,22.4-23.6,36.8-23.6,36.8L740.1,508.4z"/>
		<path class="st17" d="M768.4,427.2l4.9,2.1l-33.2,79.1l-48.4-20.3c0,0,2.1-2.1,5.2-5.9C741.7,513,763.6,444.7,768.4,427.2z"/>
		<path class="st18" d="M739.2,510.7c1.3,0.5,2.7-0.1,3.2-1.3l33.2-79.2c0.5-1.3-0.1-2.7-1.3-3.2l0,0c-1.3-0.5-2.7,0.1-3.2,1.3
			l-33.2,79.2C737.3,508.7,737.9,510.2,739.2,510.7L739.2,510.7z"/>
		<path class="st18" d="M725.3,409.2l3.8,1.6l-0.9,8.9c-1.2,8.4-3.6,20.6-8.8,33c-5.1,12.1-11.5,21.9-16.5,28.5l-7.1,8.5l-3.6-1.5
			c0,0,14.2-14.4,23.6-36.8C724.8,430.1,725.3,409.2,725.3,409.2z"/>
		<g>
			<g>
				<path class="st19" d="M727.5,410.9C727.5,410.9,727.5,410.8,727.5,410.9l0.1-0.9c0-0.2-0.1-0.3-0.3-0.3c-0.2,0-0.3,0.1-0.3,0.3
					l-0.1,0.8c0,0.2,0.1,0.3,0.3,0.3C727.4,411.1,727.5,411,727.5,410.9z"/>
			</g>
			<g>
				<path class="st19" d="M717.4,453.2c-0.1,0.2-0.2,0.2-0.4,0.2c-0.1-0.1-0.2-0.2-0.2-0.4c0.2-0.4,0.3-0.8,0.5-1.1l0.1-0.3l0,0
					c0.1-0.1,0.2-0.2,0.4-0.2c0.2,0.1,0.2,0.2,0.2,0.4l-0.1,0.3C717.7,452.5,717.6,452.8,717.4,453.2z M718.2,450.5
					c-0.2-0.1-0.2-0.2-0.2-0.4c0.2-0.5,0.4-1,0.6-1.4c0.1-0.2,0.2-0.2,0.4-0.2c0.1,0.1,0.2,0.2,0.2,0.4c-0.2,0.5-0.4,1-0.6,1.5
					c0,0,0,0,0,0C718.6,450.5,718.4,450.6,718.2,450.5z M716.8,454.7c-0.2,0.5-0.4,1-0.6,1.4c-0.1,0.2-0.2,0.2-0.4,0.1
					c-0.1-0.1-0.2-0.2-0.1-0.4c0.2-0.5,0.4-0.9,0.6-1.4c0.1-0.1,0.2-0.2,0.4-0.1C716.8,454.3,716.9,454.5,716.8,454.7
					C716.8,454.6,716.8,454.7,716.8,454.7z M719.4,447.6c-0.2-0.1-0.2-0.2-0.2-0.4c0.2-0.5,0.4-1,0.5-1.5c0.1-0.2,0.2-0.2,0.4-0.2
					c0.2,0.1,0.2,0.2,0.2,0.4c-0.2,0.5-0.4,1-0.5,1.5c0,0,0,0,0,0C719.7,447.6,719.5,447.6,719.4,447.6z M715.5,457.5
					c-0.2,0.5-0.5,0.9-0.7,1.4c-0.1,0.2-0.3,0.2-0.4,0.1c-0.1-0.1-0.2-0.3-0.1-0.4c0.2-0.5,0.5-0.9,0.7-1.4c0.1-0.1,0.2-0.2,0.4-0.1
					C715.5,457.2,715.6,457.3,715.5,457.5C715.5,457.5,715.5,457.5,715.5,457.5z M720.4,444.6c-0.2-0.1-0.2-0.2-0.2-0.4
					c0.2-0.5,0.3-1,0.5-1.5c0.1-0.2,0.2-0.2,0.4-0.2c0.2,0.1,0.2,0.2,0.2,0.4c-0.2,0.5-0.3,1-0.5,1.5c0,0,0,0,0,0
					C720.7,444.6,720.6,444.7,720.4,444.6z M714.1,460.3c-0.2,0.5-0.5,0.9-0.7,1.4c-0.1,0.1-0.3,0.2-0.4,0.1
					c-0.1-0.1-0.2-0.3-0.1-0.4c0.2-0.5,0.5-0.9,0.7-1.4c0.1-0.1,0.3-0.2,0.4-0.1C714.1,460,714.2,460.1,714.1,460.3
					C714.1,460.3,714.1,460.3,714.1,460.3z M721.4,441.7c-0.2-0.1-0.2-0.2-0.2-0.4c0.2-0.5,0.3-1,0.5-1.5c0.1-0.2,0.2-0.2,0.4-0.2
					c0.2,0,0.2,0.2,0.2,0.4c-0.1,0.5-0.3,1-0.5,1.5c0,0,0,0,0,0C721.7,441.7,721.5,441.7,721.4,441.7z M712.7,463.1
					c-0.3,0.5-0.5,0.9-0.7,1.4c-0.1,0.1-0.3,0.2-0.4,0.1c-0.1-0.1-0.2-0.3-0.1-0.4c0.2-0.4,0.5-0.9,0.7-1.4c0.1-0.1,0.3-0.2,0.4-0.1
					C712.7,462.7,712.7,462.9,712.7,463.1C712.7,463.1,712.7,463.1,712.7,463.1z M722.3,438.7c-0.2,0-0.3-0.2-0.2-0.4
					c0.1-0.5,0.3-1,0.4-1.5c0-0.2,0.2-0.2,0.4-0.2c0.2,0,0.3,0.2,0.2,0.4c-0.1,0.5-0.3,1-0.4,1.5c0,0,0,0,0,0
					C722.6,438.7,722.4,438.7,722.3,438.7z M711.1,465.8c-0.3,0.5-0.5,0.9-0.8,1.4c-0.1,0.1-0.3,0.2-0.4,0.1
					c-0.1-0.1-0.2-0.3-0.1-0.4c0.3-0.4,0.5-0.9,0.8-1.3c0.1-0.1,0.3-0.2,0.4-0.1C711.2,465.5,711.2,465.6,711.1,465.8
					C711.2,465.8,711.1,465.8,711.1,465.8z M723.1,435.7c-0.2,0-0.3-0.2-0.2-0.4c0.1-0.5,0.3-1,0.4-1.5c0-0.2,0.2-0.3,0.4-0.2
					c0.2,0,0.3,0.2,0.2,0.4c-0.1,0.5-0.3,1-0.4,1.5c0,0,0,0,0,0C723.4,435.6,723.3,435.7,723.1,435.7z M709.6,468.5
					c-0.3,0.5-0.5,0.9-0.8,1.3c-0.1,0.1-0.3,0.2-0.4,0.1c-0.1-0.1-0.2-0.3-0.1-0.4c0.3-0.4,0.5-0.9,0.8-1.3c0.1-0.1,0.3-0.2,0.4-0.1
					C709.6,468.2,709.6,468.3,709.6,468.5C709.6,468.5,709.6,468.5,709.6,468.5z M723.9,432.7c-0.2,0-0.3-0.2-0.2-0.4
					c0.1-0.5,0.2-1,0.4-1.5c0-0.2,0.2-0.3,0.4-0.2c0.2,0,0.3,0.2,0.2,0.4c-0.1,0.5-0.2,1-0.4,1.5c0,0,0,0,0,0
					C724.2,432.6,724,432.7,723.9,432.7z M707.9,471.2c-0.3,0.4-0.6,0.9-0.8,1.3c-0.1,0.1-0.3,0.2-0.4,0.1c-0.1-0.1-0.2-0.3-0.1-0.4
					c0.3-0.4,0.6-0.9,0.8-1.3c0.1-0.1,0.3-0.2,0.4-0.1C708,470.9,708,471,707.9,471.2C707.9,471.2,707.9,471.2,707.9,471.2z
					 M724.6,429.6c-0.2,0-0.3-0.2-0.2-0.4c0.1-0.5,0.2-1,0.3-1.5c0-0.2,0.2-0.3,0.3-0.2c0.2,0,0.3,0.2,0.2,0.3
					c-0.1,0.5-0.2,1-0.3,1.5c0,0,0,0,0,0.1C724.9,429.6,724.7,429.6,724.6,429.6z M706.2,473.8c-0.3,0.4-0.6,0.9-0.9,1.3
					c-0.1,0.1-0.3,0.2-0.4,0.1c-0.1-0.1-0.2-0.3-0.1-0.4c0.3-0.4,0.6-0.9,0.9-1.3c0.1-0.1,0.3-0.2,0.4-0.1
					C706.3,473.5,706.3,473.6,706.2,473.8C706.2,473.8,706.2,473.8,706.2,473.8z M725.2,426.6c-0.2,0-0.3-0.2-0.2-0.4
					c0.1-0.5,0.2-1,0.3-1.5c0-0.2,0.2-0.3,0.3-0.2c0.2,0,0.3,0.2,0.2,0.3c-0.1,0.5-0.2,1-0.3,1.5c0,0,0,0,0,0.1
					C725.5,426.5,725.3,426.6,725.2,426.6z M704.5,476.4c-0.3,0.4-0.6,0.9-0.9,1.3c-0.1,0.1-0.3,0.2-0.4,0.1
					c-0.1-0.1-0.2-0.3-0.1-0.4c0.3-0.4,0.6-0.8,0.9-1.3c0.1-0.1,0.3-0.2,0.4-0.1C704.5,476.1,704.6,476.2,704.5,476.4
					C704.5,476.4,704.5,476.4,704.5,476.4z M725.8,423.5c-0.2,0-0.3-0.2-0.2-0.3c0.1-0.5,0.2-1,0.3-1.5c0-0.2,0.2-0.3,0.3-0.2
					c0.2,0,0.3,0.2,0.2,0.3c-0.1,0.5-0.2,1-0.3,1.5c0,0,0,0,0,0.1C726,423.4,725.9,423.5,725.8,423.5z M702.7,478.9
					c-0.3,0.4-0.6,0.9-0.9,1.3c-0.1,0.1-0.3,0.2-0.4,0.1c-0.1-0.1-0.2-0.3-0.1-0.4c0.3-0.4,0.6-0.8,0.9-1.3c0.1-0.1,0.3-0.2,0.4-0.1
					C702.7,478.6,702.7,478.8,702.7,478.9C702.7,478.9,702.7,478.9,702.7,478.9z M726.3,420.4c-0.2,0-0.3-0.2-0.2-0.3
					c0.1-0.4,0.1-0.8,0.2-1.1l0-0.4c0-0.2,0.2-0.3,0.3-0.3c0.2,0,0.3,0.2,0.3,0.3l0,0.4c-0.1,0.4-0.1,0.8-0.2,1.2c0,0,0,0,0,0.1
					C726.5,420.3,726.4,420.4,726.3,420.4z M700.7,481.4l-1,1.2c-0.1,0.1-0.3,0.1-0.4,0c-0.1-0.1-0.1-0.3,0-0.4l1-1.2
					c0.1-0.1,0.3-0.1,0.4,0C700.8,481.1,700.8,481.2,700.7,481.4C700.8,481.4,700.8,481.4,700.7,481.4z M726.6,417.3
					c-0.2,0-0.3-0.2-0.3-0.3l0.1-1.6c0-0.2,0.2-0.3,0.3-0.3c0.2,0,0.3,0.2,0.3,0.3L727,417c0,0,0,0.1,0,0.1
					C726.9,417.2,726.8,417.3,726.6,417.3z M698.7,483.8l-1,1.2c-0.1,0.1-0.3,0.1-0.4,0c-0.1-0.1-0.1-0.3,0-0.4l1-1.2
					c0.1-0.1,0.3-0.1,0.4,0C698.8,483.5,698.8,483.6,698.7,483.8C698.8,483.8,698.8,483.8,698.7,483.8z M726.9,414.2
					c-0.2,0-0.3-0.2-0.3-0.3l0.1-1.6c0-0.2,0.2-0.3,0.3-0.3c0.2,0,0.3,0.2,0.3,0.3l-0.2,1.6c0,0,0,0.1,0,0.1
					C727.2,414.1,727.1,414.2,726.9,414.2z M696.7,486.2l-1,1.2c-0.1,0.1-0.3,0.1-0.4,0c-0.1-0.1-0.1-0.3,0-0.4l1-1.2
					c0.1-0.1,0.3-0.1,0.4,0C696.8,485.9,696.8,486,696.7,486.2C696.8,486.2,696.8,486.2,696.7,486.2z"/>
			</g>
			<g>
				<path class="st19" d="M694.8,488.5c0.1-0.1,0-0.3-0.1-0.3c-0.1-0.1-0.3-0.1-0.4,0l-0.5,0.6c-0.1,0.1-0.1,0.3,0,0.4
					c0.1,0.1,0.3,0.1,0.4,0L694.8,488.5C694.8,488.6,694.8,488.6,694.8,488.5z"/>
			</g>
		</g>
		<path class="st18" d="M589.5,448.7c0.6-16.7,6.8-43.4,14.1-61c1.1-2.7,2.3-5.2,3.5-7.4c7.6-14.4,14.2-21.7,21.2-23.7
			c3.4-1,6.9-0.7,10.4,0.9c3.3-3,13.2-9.5,30.7-1.2c19.1,9,38.5,20.7,44.3,41.5c0.8,2.9,3,4.4,6.1,7c1.3,1.1,5.6,4.5,5.6,4.5
			l-1.9,10.3c-1.1,8.1-3.1,19.4-8.3,31.8c-5.1,12.2-12,21.7-16.6,27.9l-6.3,9.1c0,0-7.6,0.2-9.6,0.2c-3.3-0.1-36.7-2.6-55.1-5.1
			C608.1,480.7,588.8,468.9,589.5,448.7z"/>
		<path class="st20" d="M592.3,448.7c0.6-18.6,8.5-50.7,17.3-67.2c8.7-16.5,17.9-27.6,29.8-20.7c0,0,8.5-11.7,28.9-2.1
			c20.4,9.6,38.4,21,43.7,40.1c1.2,4.4,5.5,6.3,13.5,10.3l-1,10.4c-1.1,8.1-3.5,19.9-8.5,31.9c-4.9,11.7-11.1,21.2-16,27.6l-7.7,9.1
			l-7.5-1.1c0,0-38.2-4.1-56.9-6.6C609.1,478,591.7,467.1,592.3,448.7z"/>
		<path class="st18" d="M735,490.7c3.6,1.5,7.6-0.2,9.1-3.7l24.2-57.8c1.5-3.5-0.3-7.4-3.8-8.9L735,407.9c0,0,3.9,2.2,1.5,7.9
			l-24.2,57.8c-1.5,3.5,0.2,7.6,3.7,9.1L735,490.7z"/>
		<path class="st20" d="M734.5,485.5c2.8,1.2,5.9-0.1,7.1-2.9l23.6-56.4c1.2-2.8-0.2-5.7-3-6.9l-23-9.6c0,0,3,1.7,1.2,6.1
			l-23.6,56.4c-1.2,2.8,0.1,5.9,2.9,7.1L734.5,485.5z"/>
		<g>
			<path class="st21" d="M739.4,409.8C739.4,409.7,739.3,409.7,739.4,409.8L739.4,409.8C739.4,409.7,739.4,409.7,739.4,409.8z"/>
			<path class="st21" d="M716.5,473.7c0.5,0.5,1.1,0.9,1.7,1.2L733,481c2.8,1.2,5.9-0.1,7.1-2.9l23.6-56.4c0.2-0.4,0.3-0.8,0.4-1.3
				c1.5,1.5,2.1,3.7,1.2,5.7l-23.6,56.4c-1.2,2.8-4.3,4.1-7.1,2.9l-14.8-6.2C717.5,478.4,716.2,476,716.5,473.7z"/>
		</g>
		<path class="st22" d="M711.9,398.7c0,0.1,0,0.2,0.1,0.2c1.2,4.4,5.6,6.3,13.5,10.3l-1,10.4c-1.1,8.1-3.5,19.9-8.5,31.9
			c-4.9,11.7-11.1,21.2-16,27.6l-7.7,9.1l-7.5-1.1c0,0-38.2-4.1-56.9-6.6c-14.4-2-28.1-8.9-33.3-20.3
			C683.8,491.9,706.5,424.5,711.9,398.7z"/>
		<path class="st23" d="M636.5,371.2c-3.4-3-9.6-6.4-17.5,4.8c-7.9,11.3-25.5,56-17.5,73.9c0,0-0.4-15.1,9.3-30.6
			C620.6,403.8,650,383.1,636.5,371.2z"/>
		<path class="st23" d="M680,368.8c0,0-12.4-8.1-21-9.7c-12.2-2.2-15.3,1.8-15.2,4.8c0.2,5.4,6,6.5,14.3,3.8
			C665.6,365.3,674.6,366.3,680,368.8z"/>
		<path class="st23" d="M669.2,388c-3.7-3.2-6.9-7.2-11.3-4c-4.1,2.9-2.9,13,16.8,17.8c19.6,4.8,26.2,14.6,21.4,24.2
			c-4.9,9.5,5.4,10.1,10.2-18.7c4.5-27.3-23.4-39-28.3-33.5c-6.1,7,6,12.5,0.6,17.1C675.7,393.4,670.5,389.2,669.2,388z"/>
		<path class="st7" d="M635.2,361.7c0,0-10.6-2.5-20.9,14.6c-7.4,12.3-11.3,23.4-15.5,44.4c0,0,4.4-18.2,13.3-36
			C618.8,371,629,361.4,635.2,361.7z"/>
		<g>
			<g>
				<path class="st18" d="M642.8,357.8c-3,2.2-2.3,8.1-1.3,11c1.6,4.8,8.7,5.8,12.8,7c4.1,1.2,8.1,3.1,12,4.7
					c4.1,1.6,8.2,3.6,11.3,6.8c1.1,1.1-0.9,2.5-1.9,1.4c-4.1-4.3-10.5-6.1-16-8.2c-5-1.9-10.5-3.2-15.3-5.5
					c-6.1-2.9-9.2-14.6-3.1-19.1C642.6,354.9,644,356.8,642.8,357.8L642.8,357.8z"/>
			</g>
			<path class="st18" d="M646.8,375.2c0,0-3.6,3.1-4.1,7.8c0,0,2.6-6.1,6.9-7.2L646.8,375.2z"/>
			<path class="st18" d="M639.1,365.3c0,0-3.7-1.6-6.3,0.3c0,0,4.2-0.4,6.4,1.9L639.1,365.3z"/>
			<path class="st18" d="M661,379.3c0,0,1.8-6.3,6-6.7c0,0-3.9,2.9-3.7,7.7L661,379.3z"/>
			<path class="st18" d="M641.6,371.7c0,0-1.8,0.3-2.7,1.6c0,0,2.2-0.8,4.5,0.1L641.6,371.7z"/>
			<path class="st18" d="M670,384.1c0,0,2.3,2.4,1.6,4.8c0,0,1.1-1.3,0.8-3.3L670,384.1z"/>
			<path class="st18" d="M671.4,382.7c0,0,3,1.8,5.2,0.3c0,0-1.6,1.5-3,1.8L671.4,382.7z"/>
			<path class="st18" d="M657.3,378.8c0,0-2.1,4.7-5.9,5.6c0,0,5.6,0.1,7.7-5.4L657.3,378.8z"/>
			<path class="st18" d="M652.7,375.8c0,0-0.1-4.6,3.9-5.1c0,0-3.5,2.5-2.2,5.8L652.7,375.8z"/>
		</g>
		<path class="st23" d="M725.7,459.3c-1.9-1.5,9.7-20.8,13-29.6c3.3-8.8,3-17.7,7-13.9c4,3.8,10.9,3.4,11.3,4.4
			c0.8,2.3-5.2,2.1-9.2,2.7C743.8,423.6,732.2,464.5,725.7,459.3z"/>
		<path class="st7" d="M657.4,357c0,0-10.7-2.5-14.1,2.9C643.3,359.9,648.7,356.7,657.4,357z"/>
		<g>
			<g>
				<g>
					<path class="st19" d="M773.7,428.3l0.3-0.7c0.1-0.2,0-0.4-0.2-0.5c-0.2-0.1-0.4,0-0.5,0.2L773,428c-0.1,0.2,0,0.4,0.2,0.5
						C773.4,428.6,773.6,428.5,773.7,428.3z"/>
				</g>
				<g>
					<path class="st19" d="M740,507.6c-0.2-0.1-0.3-0.3-0.2-0.5l0.6-1.5c0.1-0.2,0.3-0.3,0.5-0.2c0.2,0.1,0.3,0.3,0.2,0.5l-0.6,1.5
						C740.5,507.6,740.3,507.7,740,507.6z M741.3,504.7c-0.2-0.1-0.3-0.3-0.2-0.5l0.6-1.5c0.1-0.2,0.3-0.3,0.5-0.2
						c0.2,0.1,0.3,0.3,0.2,0.5l-0.6,1.5C741.7,504.7,741.5,504.8,741.3,504.7z M742.5,501.7c-0.2-0.1-0.3-0.3-0.2-0.5l0.6-1.5
						c0.1-0.2,0.3-0.3,0.5-0.2c0.2,0.1,0.3,0.3,0.2,0.5l-0.6,1.5C742.9,501.7,742.7,501.8,742.5,501.7z M743.7,498.8
						c-0.2-0.1-0.3-0.3-0.2-0.5l0.6-1.5c0.1-0.2,0.3-0.3,0.5-0.2c0.2,0.1,0.3,0.3,0.2,0.5l-0.6,1.5
						C744.2,498.8,743.9,498.9,743.7,498.8z M745,495.9c-0.2-0.1-0.3-0.3-0.2-0.5l0.6-1.5c0.1-0.2,0.3-0.3,0.5-0.2
						c0.2,0.1,0.3,0.3,0.2,0.5l-0.6,1.5C745.4,495.9,745.2,496,745,495.9z M746.2,493c-0.2-0.1-0.3-0.3-0.2-0.5l0.6-1.5
						c0.1-0.2,0.3-0.3,0.5-0.2c0.2,0.1,0.3,0.3,0.2,0.5l-0.6,1.5C746.6,492.9,746.4,493,746.2,493z M747.4,490
						c-0.2-0.1-0.3-0.3-0.2-0.5l0.6-1.5c0.1-0.2,0.3-0.3,0.5-0.2c0.2,0.1,0.3,0.3,0.2,0.5l-0.6,1.5C747.9,490,747.6,490.1,747.4,490
						z M748.6,487.1c-0.2-0.1-0.3-0.3-0.2-0.5l0.6-1.5c0.1-0.2,0.3-0.3,0.5-0.2c0.2,0.1,0.3,0.3,0.2,0.5l-0.6,1.5
						C749.1,487.1,748.8,487.2,748.6,487.1z M749.9,484.2c-0.2-0.1-0.3-0.3-0.2-0.5l0.6-1.5c0.1-0.2,0.3-0.3,0.5-0.2
						c0.2,0.1,0.3,0.3,0.2,0.5l-0.6,1.5C750.3,484.2,750.1,484.2,749.9,484.2z M751.1,481.2c-0.2-0.1-0.3-0.3-0.2-0.5l0.6-1.5
						c0.1-0.2,0.3-0.3,0.5-0.2c0.2,0.1,0.3,0.3,0.2,0.5l-0.6,1.5C751.5,481.2,751.3,481.3,751.1,481.2z M752.3,478.3
						c-0.2-0.1-0.3-0.3-0.2-0.5l0.6-1.5c0.1-0.2,0.3-0.3,0.5-0.2c0.2,0.1,0.3,0.3,0.2,0.5l-0.6,1.5
						C752.8,478.3,752.5,478.4,752.3,478.3z M753.6,475.4c-0.2-0.1-0.3-0.3-0.2-0.5l0.6-1.5c0.1-0.2,0.3-0.3,0.5-0.2
						c0.2,0.1,0.3,0.3,0.2,0.5l-0.6,1.5C754,475.4,753.8,475.5,753.6,475.4z M754.8,472.5c-0.2-0.1-0.3-0.3-0.2-0.5l0.6-1.5
						c0.1-0.2,0.3-0.3,0.5-0.2c0.2,0.1,0.3,0.3,0.2,0.5l-0.6,1.5C755.2,472.4,755,472.5,754.8,472.5z M756,469.5
						c-0.2-0.1-0.3-0.3-0.2-0.5l0.6-1.5c0.1-0.2,0.3-0.3,0.5-0.2c0.2,0.1,0.3,0.3,0.2,0.5l-0.6,1.5
						C756.4,469.5,756.2,469.6,756,469.5z M757.2,466.6c-0.2-0.1-0.3-0.3-0.2-0.5l0.6-1.5c0.1-0.2,0.3-0.3,0.5-0.2
						c0.2,0.1,0.3,0.3,0.2,0.5l-0.6,1.5C757.7,466.6,757.4,466.7,757.2,466.6z M758.5,463.7c-0.2-0.1-0.3-0.3-0.2-0.5l0.6-1.5
						c0.1-0.2,0.3-0.3,0.5-0.2c0.2,0.1,0.3,0.3,0.2,0.5l-0.6,1.5C758.9,463.7,758.7,463.8,758.5,463.7z M759.7,460.7
						c-0.2-0.1-0.3-0.3-0.2-0.5l0.6-1.5c0.1-0.2,0.3-0.3,0.5-0.2c0.2,0.1,0.3,0.3,0.2,0.5l-0.6,1.5
						C760.1,460.7,759.9,460.8,759.7,460.7z M760.9,457.8c-0.2-0.1-0.3-0.3-0.2-0.5l0.6-1.5c0.1-0.2,0.3-0.3,0.5-0.2
						c0.2,0.1,0.3,0.3,0.2,0.5l-0.6,1.5C761.4,457.8,761.1,457.9,760.9,457.8z M762.2,454.9c-0.2-0.1-0.3-0.3-0.2-0.5l0.6-1.5
						c0.1-0.2,0.3-0.3,0.5-0.2c0.2,0.1,0.3,0.3,0.2,0.5l-0.6,1.5C762.6,454.9,762.4,455,762.2,454.9z M763.4,451.9
						c-0.2-0.1-0.3-0.3-0.2-0.5l0.6-1.5c0.1-0.2,0.3-0.3,0.5-0.2c0.2,0.1,0.3,0.3,0.2,0.5l-0.6,1.5
						C763.8,451.9,763.6,452,763.4,451.9z M764.6,449c-0.2-0.1-0.3-0.3-0.2-0.5l0.6-1.5c0.1-0.2,0.3-0.3,0.5-0.2
						c0.2,0.1,0.3,0.3,0.2,0.5l-0.6,1.5C765,449,764.8,449.1,764.6,449z M765.8,446.1c-0.2-0.1-0.3-0.3-0.2-0.5l0.6-1.5
						c0.1-0.2,0.3-0.3,0.5-0.2c0.2,0.1,0.3,0.3,0.2,0.5l-0.6,1.5C766.3,446.1,766,446.2,765.8,446.1z M767.1,443.2
						c-0.2-0.1-0.3-0.3-0.2-0.5l0.6-1.5c0.1-0.2,0.3-0.3,0.5-0.2c0.2,0.1,0.3,0.3,0.2,0.5l-0.6,1.5
						C767.5,443.2,767.3,443.2,767.1,443.2z M768.3,440.2c-0.2-0.1-0.3-0.3-0.2-0.5l0.6-1.5c0.1-0.2,0.3-0.3,0.5-0.2
						c0.2,0.1,0.3,0.3,0.2,0.5l-0.6,1.5C768.7,440.2,768.5,440.3,768.3,440.2z M769.5,437.3c-0.2-0.1-0.3-0.3-0.2-0.5l0.6-1.5
						c0.1-0.2,0.3-0.3,0.5-0.2c0.2,0.1,0.3,0.3,0.2,0.5l-0.6,1.5C770,437.3,769.7,437.4,769.5,437.3z M770.8,434.4
						c-0.2-0.1-0.3-0.3-0.2-0.5l0.6-1.5c0.1-0.2,0.3-0.3,0.5-0.2c0.2,0.1,0.3,0.3,0.2,0.5l-0.6,1.5
						C771.2,434.4,771,434.5,770.8,434.4z M772,431.5c-0.2-0.1-0.3-0.3-0.2-0.5l0.6-1.5c0.1-0.2,0.3-0.3,0.5-0.2
						c0.2,0.1,0.3,0.3,0.2,0.5l-0.6,1.5C772.4,431.4,772.2,431.5,772,431.5z"/>
				</g>
				<g>
					<path class="st19" d="M739.6,509.6l0.3-0.7c0.1-0.2,0-0.4-0.2-0.5c-0.2-0.1-0.4,0-0.5,0.2l-0.3,0.7c-0.1,0.2,0,0.4,0.2,0.5
						C739.3,509.9,739.6,509.8,739.6,509.6z"/>
				</g>
			</g>
		</g>
		<path class="st24" d="M737.7,508.6c0.2,0.3,0.5,0.5,0.9,0.7c1.3,0.5,2.7-0.1,3.2-1.3l33.2-79.2c0.2-0.4,0.2-0.7,0.2-1.1
			c0.6,0.7,0.8,1.7,0.4,2.6l-33.2,79.2c-0.5,1.3-2,1.9-3.2,1.3C738.3,510.3,737.7,509.5,737.7,508.6z"/>
	</g>
</g>
</svg>
